<svg width="205" height="60" viewBox="0 0 205 60" fill="none" xmlns="http://www.w3.org/2000/svg">
<path d="M6.32 20.28C5.18667 20.28 4.08667 20.14 3.02 19.86C1.95333 19.58 1.08667 19.2067 0.42 18.74L1.72 15.82C2.34667 16.2333 3.07333 16.5667 3.9 16.82C4.72667 17.0733 5.54 17.2 6.34 17.2C7.86 17.2 8.62 16.82 8.62 16.06C8.62 15.66 8.4 15.3667 7.96 15.18C7.53333 14.98 6.84 14.7733 5.88 14.56C4.82667 14.3333 3.94667 14.0933 3.24 13.84C2.53333 13.5733 1.92667 13.1533 1.42 12.58C0.913333 12.0067 0.66 11.2333 0.66 10.26C0.66 9.40667 0.893333 8.64 1.36 7.96C1.82667 7.26667 2.52 6.72 3.44 6.32C4.37333 5.92 5.51333 5.72 6.86 5.72C7.78 5.72 8.68667 5.82667 9.58 6.04C10.4733 6.24 11.26 6.54 11.94 6.94L10.72 9.88C9.38667 9.16 8.09333 8.8 6.84 8.8C6.05333 8.8 5.48 8.92 5.12 9.16C4.76 9.38667 4.58 9.68667 4.58 10.06C4.58 10.4333 4.79333 10.7133 5.22 10.9C5.64667 11.0867 6.33333 11.28 7.28 11.48C8.34667 11.7067 9.22667 11.9533 9.92 12.22C10.6267 12.4733 11.2333 12.8867 11.74 13.46C12.26 14.02 12.52 14.7867 12.52 15.76C12.52 16.6 12.2867 17.36 11.82 18.04C11.3533 18.72 10.6533 19.2667 9.72 19.68C8.78667 20.08 7.65333 20.28 6.32 20.28ZM17.1339 9.14H12.8339V6H25.3739V9.14H21.0939V20H17.1339V9.14ZM33.0944 20.28C31.0144 20.28 29.3944 19.7133 28.2344 18.58C27.0877 17.4467 26.5144 15.84 26.5144 13.76V6H30.4744V13.64C30.4744 15.88 31.361 17 33.1344 17C34.8944 17 35.7744 15.88 35.7744 13.64V6H39.6744V13.76C39.6744 15.84 39.0944 17.4467 37.9344 18.58C36.7877 19.7133 35.1744 20.28 33.0944 20.28ZM42.357 6H48.977C50.5104 6 51.8704 6.28667 53.057 6.86C54.2437 7.43333 55.1637 8.24667 55.817 9.3C56.4704 10.3533 56.797 11.5867 56.797 13C56.797 14.4133 56.4704 15.6467 55.817 16.7C55.1637 17.7533 54.2437 18.5667 53.057 19.14C51.8704 19.7133 50.5104 20 48.977 20H42.357V6ZM48.817 16.84C50.017 16.84 50.977 16.5 51.697 15.82C52.4304 15.14 52.797 14.2 52.797 13C52.797 11.8 52.4304 10.86 51.697 10.18C50.977 9.5 50.017 9.16 48.817 9.16H46.317V16.84H48.817ZM65.775 14.98V20H61.815V14.92L56.475 6H60.655L63.975 11.56L67.295 6H71.135L65.775 14.98ZM77.9625 6H81.9225V20H77.9625V6ZM98.0598 6V20H94.7998L88.6198 12.54V20H84.7398V6H87.9998L94.1798 13.46V6H98.0598ZM112.793 16.28H110.633V20H106.673V6H113.073C114.34 6 115.44 6.21333 116.373 6.64C117.307 7.05333 118.027 7.65333 118.533 8.44C119.04 9.21333 119.293 10.1267 119.293 11.18C119.293 12.1933 119.053 13.08 118.573 13.84C118.107 14.5867 117.433 15.1733 116.553 15.6L119.573 20H115.333L112.793 16.28ZM115.293 11.18C115.293 10.5267 115.087 10.02 114.673 9.66C114.26 9.3 113.647 9.12 112.833 9.12H110.633V13.22H112.833C113.647 13.22 114.26 13.0467 114.673 12.7C115.087 12.34 115.293 11.8333 115.293 11.18ZM127.938 20.28C125.858 20.28 124.238 19.7133 123.078 18.58C121.931 17.4467 121.358 15.84 121.358 13.76V6H125.318V13.64C125.318 15.88 126.205 17 127.978 17C129.738 17 130.618 15.88 130.618 13.64V6H134.518V13.76C134.518 15.84 133.938 17.4467 132.778 18.58C131.631 19.7133 130.018 20.28 127.938 20.28ZM142.121 20.28C140.987 20.28 139.887 20.14 138.821 19.86C137.754 19.58 136.887 19.2067 136.221 18.74L137.521 15.82C138.147 16.2333 138.874 16.5667 139.701 16.82C140.527 17.0733 141.341 17.2 142.141 17.2C143.661 17.2 144.421 16.82 144.421 16.06C144.421 15.66 144.201 15.3667 143.761 15.18C143.334 14.98 142.641 14.7733 141.681 14.56C140.627 14.3333 139.747 14.0933 139.041 13.84C138.334 13.5733 137.727 13.1533 137.221 12.58C136.714 12.0067 136.461 11.2333 136.461 10.26C136.461 9.40667 136.694 8.64 137.161 7.96C137.627 7.26667 138.321 6.72 139.241 6.32C140.174 5.92 141.314 5.72 142.661 5.72C143.581 5.72 144.487 5.82667 145.381 6.04C146.274 6.24 147.061 6.54 147.741 6.94L146.521 9.88C145.187 9.16 143.894 8.8 142.641 8.8C141.854 8.8 141.281 8.92 140.921 9.16C140.561 9.38667 140.381 9.68667 140.381 10.06C140.381 10.4333 140.594 10.7133 141.021 10.9C141.447 11.0867 142.134 11.28 143.081 11.48C144.147 11.7067 145.027 11.9533 145.721 12.22C146.427 12.4733 147.034 12.8867 147.541 13.46C148.061 14.02 148.321 14.7867 148.321 15.76C148.321 16.6 148.087 17.36 147.621 18.04C147.154 18.72 146.454 19.2667 145.521 19.68C144.587 20.08 143.454 20.28 142.121 20.28ZM155.07 20.28C153.937 20.28 152.837 20.14 151.77 19.86C150.703 19.58 149.837 19.2067 149.17 18.74L150.47 15.82C151.097 16.2333 151.823 16.5667 152.65 16.82C153.477 17.0733 154.29 17.2 155.09 17.2C156.61 17.2 157.37 16.82 157.37 16.06C157.37 15.66 157.15 15.3667 156.71 15.18C156.283 14.98 155.59 14.7733 154.63 14.56C153.577 14.3333 152.697 14.0933 151.99 13.84C151.283 13.5733 150.677 13.1533 150.17 12.58C149.663 12.0067 149.41 11.2333 149.41 10.26C149.41 9.40667 149.643 8.64 150.11 7.96C150.577 7.26667 151.27 6.72 152.19 6.32C153.123 5.92 154.263 5.72 155.61 5.72C156.53 5.72 157.437 5.82667 158.33 6.04C159.223 6.24 160.01 6.54 160.69 6.94L159.47 9.88C158.137 9.16 156.843 8.8 155.59 8.8C154.803 8.8 154.23 8.92 153.87 9.16C153.51 9.38667 153.33 9.68667 153.33 10.06C153.33 10.4333 153.543 10.7133 153.97 10.9C154.397 11.0867 155.083 11.28 156.03 11.48C157.097 11.7067 157.977 11.9533 158.67 12.22C159.377 12.4733 159.983 12.8867 160.49 13.46C161.01 14.02 161.27 14.7867 161.27 15.76C161.27 16.6 161.037 17.36 160.57 18.04C160.103 18.72 159.403 19.2667 158.47 19.68C157.537 20.08 156.403 20.28 155.07 20.28ZM163.099 6H167.059V20H163.099V6ZM179.257 17.28H173.337L172.237 20H168.197L174.377 6H178.277L184.477 20H180.357L179.257 17.28ZM178.097 14.36L176.297 9.88L174.497 14.36H178.097Z" fill="#BEC7CC"/>
<path d="M1.128 32.6H2.688V39.68H7.08V41H1.128V32.6ZM14.133 37.832C14.133 37.936 14.125 38.084 14.109 38.276H9.081C9.169 38.748 9.397 39.124 9.765 39.404C10.141 39.676 10.605 39.812 11.157 39.812C11.861 39.812 12.441 39.58 12.897 39.116L13.701 40.04C13.413 40.384 13.049 40.644 12.609 40.82C12.169 40.996 11.673 41.084 11.121 41.084C10.417 41.084 9.797 40.944 9.261 40.664C8.725 40.384 8.309 39.996 8.013 39.5C7.725 38.996 7.581 38.428 7.581 37.796C7.581 37.172 7.721 36.612 8.001 36.116C8.289 35.612 8.685 35.22 9.189 34.94C9.693 34.66 10.261 34.52 10.893 34.52C11.517 34.52 12.073 34.66 12.561 34.94C13.057 35.212 13.441 35.6 13.713 36.104C13.993 36.6 14.133 37.176 14.133 37.832ZM10.893 35.72C10.413 35.72 10.005 35.864 9.669 36.152C9.341 36.432 9.141 36.808 9.069 37.28H12.705C12.641 36.816 12.445 36.44 12.117 36.152C11.789 35.864 11.381 35.72 10.893 35.72ZM17.8461 34.52C18.7901 34.52 19.5101 34.748 20.0061 35.204C20.5101 35.652 20.7621 36.332 20.7621 37.244V41H19.3461V40.22C19.1621 40.5 18.8981 40.716 18.5541 40.868C18.2181 41.012 17.8101 41.084 17.3301 41.084C16.8501 41.084 16.4301 41.004 16.0701 40.844C15.7101 40.676 15.4301 40.448 15.2301 40.16C15.0381 39.864 14.9421 39.532 14.9421 39.164C14.9421 38.588 15.1541 38.128 15.5781 37.784C16.0101 37.432 16.6861 37.256 17.6061 37.256H19.2621V37.16C19.2621 36.712 19.1261 36.368 18.8541 36.128C18.5901 35.888 18.1941 35.768 17.6661 35.768C17.3061 35.768 16.9501 35.824 16.5981 35.936C16.2541 36.048 15.9621 36.204 15.7221 36.404L15.1341 35.312C15.4701 35.056 15.8741 34.86 16.3461 34.724C16.8181 34.588 17.3181 34.52 17.8461 34.52ZM17.6421 39.992C18.0181 39.992 18.3501 39.908 18.6381 39.74C18.9341 39.564 19.1421 39.316 19.2621 38.996V38.252H17.7141C16.8501 38.252 16.4181 38.536 16.4181 39.104C16.4181 39.376 16.5261 39.592 16.7421 39.752C16.9581 39.912 17.2581 39.992 17.6421 39.992ZM24.1151 35.528C24.5471 34.856 25.3071 34.52 26.3951 34.52V35.948C26.2671 35.924 26.1511 35.912 26.0471 35.912C25.4631 35.912 25.0071 36.084 24.6791 36.428C24.3511 36.764 24.1871 37.252 24.1871 37.892V41H22.6871V34.592H24.1151V35.528ZM31.3036 34.52C32.1116 34.52 32.7596 34.756 33.2476 35.228C33.7356 35.7 33.9796 36.4 33.9796 37.328V41H32.4796V37.52C32.4796 36.96 32.3476 36.54 32.0836 36.26C31.8196 35.972 31.4436 35.828 30.9556 35.828C30.4036 35.828 29.9676 35.996 29.6476 36.332C29.3276 36.66 29.1676 37.136 29.1676 37.76V41H27.6676V34.592H29.0956V35.42C29.3436 35.124 29.6556 34.9 30.0316 34.748C30.4076 34.596 30.8316 34.52 31.3036 34.52ZM41.8028 33.224C41.1708 33.224 40.8548 33.568 40.8548 34.256V34.64H42.6188V35.84H40.9028V41H39.4028V35.84H38.3468V34.64H39.4028V34.232C39.4028 33.544 39.6028 33.004 40.0028 32.612C40.4028 32.212 40.9668 32.012 41.6948 32.012C42.2708 32.012 42.7228 32.128 43.0508 32.36L42.6308 33.488C42.3748 33.312 42.0988 33.224 41.8028 33.224ZM46.0175 35.528C46.4495 34.856 47.2095 34.52 48.2975 34.52V35.948C48.1695 35.924 48.0535 35.912 47.9495 35.912C47.3655 35.912 46.9095 36.084 46.5815 36.428C46.2535 36.764 46.0895 37.252 46.0895 37.892V41H44.5895V34.592H46.0175V35.528ZM52.3913 41.084C51.7433 41.084 51.1593 40.944 50.6393 40.664C50.1193 40.384 49.7113 39.996 49.4153 39.5C49.1273 38.996 48.9833 38.428 48.9833 37.796C48.9833 37.164 49.1273 36.6 49.4153 36.104C49.7113 35.608 50.1193 35.22 50.6393 34.94C51.1593 34.66 51.7433 34.52 52.3913 34.52C53.0473 34.52 53.6353 34.66 54.1553 34.94C54.6753 35.22 55.0793 35.608 55.3673 36.104C55.6633 36.6 55.8113 37.164 55.8113 37.796C55.8113 38.428 55.6633 38.996 55.3673 39.5C55.0793 39.996 54.6753 40.384 54.1553 40.664C53.6353 40.944 53.0473 41.084 52.3913 41.084ZM52.3913 39.8C52.9433 39.8 53.3993 39.616 53.7593 39.248C54.1193 38.88 54.2993 38.396 54.2993 37.796C54.2993 37.196 54.1193 36.712 53.7593 36.344C53.3993 35.976 52.9433 35.792 52.3913 35.792C51.8393 35.792 51.3833 35.976 51.0233 36.344C50.6713 36.712 50.4953 37.196 50.4953 37.796C50.4953 38.396 50.6713 38.88 51.0233 39.248C51.3833 39.616 51.8393 39.8 52.3913 39.8ZM65.3337 34.52C66.1417 34.52 66.7817 34.756 67.2537 35.228C67.7257 35.692 67.9617 36.392 67.9617 37.328V41H66.4617V37.52C66.4617 36.96 66.3377 36.54 66.0897 36.26C65.8417 35.972 65.4857 35.828 65.0217 35.828C64.5177 35.828 64.1137 35.996 63.8097 36.332C63.5057 36.66 63.3537 37.132 63.3537 37.748V41H61.8537V37.52C61.8537 36.96 61.7297 36.54 61.4817 36.26C61.2337 35.972 60.8777 35.828 60.4137 35.828C59.9017 35.828 59.4937 35.992 59.1897 36.32C58.8937 36.648 58.7457 37.124 58.7457 37.748V41H57.2457V34.592H58.6737V35.408C58.9137 35.12 59.2137 34.9 59.5737 34.748C59.9337 34.596 60.3337 34.52 60.7737 34.52C61.2537 34.52 61.6777 34.612 62.0457 34.796C62.4217 34.972 62.7177 35.236 62.9337 35.588C63.1977 35.252 63.5377 34.992 63.9537 34.808C64.3697 34.616 64.8297 34.52 65.3337 34.52ZM79.2189 37.832C79.2189 37.936 79.2109 38.084 79.1949 38.276H74.1669C74.2549 38.748 74.4829 39.124 74.8509 39.404C75.2269 39.676 75.6909 39.812 76.2429 39.812C76.9469 39.812 77.5269 39.58 77.9829 39.116L78.7869 40.04C78.4989 40.384 78.1349 40.644 77.6949 40.82C77.2549 40.996 76.7589 41.084 76.2069 41.084C75.5029 41.084 74.8829 40.944 74.3469 40.664C73.8109 40.384 73.3949 39.996 73.0989 39.5C72.8109 38.996 72.6669 38.428 72.6669 37.796C72.6669 37.172 72.8069 36.612 73.0869 36.116C73.3749 35.612 73.7709 35.22 74.2749 34.94C74.7789 34.66 75.3469 34.52 75.9789 34.52C76.6029 34.52 77.1589 34.66 77.6469 34.94C78.1429 35.212 78.5269 35.6 78.7989 36.104C79.0789 36.6 79.2189 37.176 79.2189 37.832ZM75.9789 35.72C75.4989 35.72 75.0909 35.864 74.7549 36.152C74.4269 36.432 74.2269 36.808 74.1549 37.28H77.7909C77.7269 36.816 77.5309 36.44 77.2029 36.152C76.8749 35.864 76.4669 35.72 75.9789 35.72ZM86.5426 34.592L83.7946 41H82.2466L79.4986 34.592H81.0586L83.0506 39.344L85.1026 34.592H86.5426ZM93.3283 37.832C93.3283 37.936 93.3203 38.084 93.3043 38.276H88.2763C88.3643 38.748 88.5923 39.124 88.9603 39.404C89.3363 39.676 89.8003 39.812 90.3523 39.812C91.0563 39.812 91.6363 39.58 92.0923 39.116L92.8963 40.04C92.6083 40.384 92.2443 40.644 91.8043 40.82C91.3643 40.996 90.8683 41.084 90.3163 41.084C89.6123 41.084 88.9923 40.944 88.4563 40.664C87.9203 40.384 87.5043 39.996 87.2083 39.5C86.9203 38.996 86.7763 38.428 86.7763 37.796C86.7763 37.172 86.9163 36.612 87.1963 36.116C87.4843 35.612 87.8803 35.22 88.3843 34.94C88.8883 34.66 89.4563 34.52 90.0883 34.52C90.7123 34.52 91.2683 34.66 91.7563 34.94C92.2523 35.212 92.6363 35.6 92.9083 36.104C93.1883 36.6 93.3283 37.176 93.3283 37.832ZM90.0883 35.72C89.6083 35.72 89.2003 35.864 88.8643 36.152C88.5363 36.432 88.3363 36.808 88.2643 37.28H91.9003C91.8363 36.816 91.6403 36.44 91.3123 36.152C90.9843 35.864 90.5763 35.72 90.0883 35.72ZM96.1972 35.528C96.6292 34.856 97.3892 34.52 98.4772 34.52V35.948C98.3492 35.924 98.2332 35.912 98.1292 35.912C97.5452 35.912 97.0892 36.084 96.7612 36.428C96.4332 36.764 96.2692 37.252 96.2692 37.892V41H94.7692V34.592H96.1972V35.528ZM105.984 34.592L102.984 41.516C102.704 42.212 102.364 42.7 101.964 42.98C101.564 43.268 101.08 43.412 100.512 43.412C100.192 43.412 99.876 43.36 99.564 43.256C99.252 43.152 98.996 43.008 98.796 42.824L99.396 41.72C99.54 41.856 99.708 41.964 99.9 42.044C100.1 42.124 100.3 42.164 100.5 42.164C100.764 42.164 100.98 42.096 101.148 41.96C101.324 41.824 101.484 41.596 101.628 41.276L101.736 41.024L98.94 34.592H100.5L102.516 39.332L104.544 34.592H105.984ZM109.626 41.084C108.978 41.084 108.394 40.944 107.874 40.664C107.354 40.384 106.946 39.996 106.65 39.5C106.362 38.996 106.218 38.428 106.218 37.796C106.218 37.164 106.362 36.6 106.65 36.104C106.946 35.608 107.354 35.22 107.874 34.94C108.394 34.66 108.978 34.52 109.626 34.52C110.282 34.52 110.87 34.66 111.39 34.94C111.91 35.22 112.314 35.608 112.602 36.104C112.898 36.6 113.046 37.164 113.046 37.796C113.046 38.428 112.898 38.996 112.602 39.5C112.314 39.996 111.91 40.384 111.39 40.664C110.87 40.944 110.282 41.084 109.626 41.084ZM109.626 39.8C110.178 39.8 110.634 39.616 110.994 39.248C111.354 38.88 111.534 38.396 111.534 37.796C111.534 37.196 111.354 36.712 110.994 36.344C110.634 35.976 110.178 35.792 109.626 35.792C109.074 35.792 108.618 35.976 108.258 36.344C107.906 36.712 107.73 37.196 107.73 37.796C107.73 38.396 107.906 38.88 108.258 39.248C108.618 39.616 109.074 39.8 109.626 39.8ZM118.116 34.52C118.924 34.52 119.572 34.756 120.06 35.228C120.548 35.7 120.792 36.4 120.792 37.328V41H119.292V37.52C119.292 36.96 119.16 36.54 118.896 36.26C118.632 35.972 118.256 35.828 117.768 35.828C117.216 35.828 116.78 35.996 116.46 36.332C116.14 36.66 115.98 37.136 115.98 37.76V41H114.48V34.592H115.908V35.42C116.156 35.124 116.468 34.9 116.844 34.748C117.22 34.596 117.644 34.52 118.116 34.52ZM128.778 37.832C128.778 37.936 128.77 38.084 128.754 38.276H123.726C123.814 38.748 124.042 39.124 124.41 39.404C124.786 39.676 125.25 39.812 125.802 39.812C126.506 39.812 127.086 39.58 127.542 39.116L128.346 40.04C128.058 40.384 127.694 40.644 127.254 40.82C126.814 40.996 126.318 41.084 125.766 41.084C125.062 41.084 124.442 40.944 123.906 40.664C123.37 40.384 122.954 39.996 122.658 39.5C122.37 38.996 122.226 38.428 122.226 37.796C122.226 37.172 122.366 36.612 122.646 36.116C122.934 35.612 123.33 35.22 123.834 34.94C124.338 34.66 124.906 34.52 125.538 34.52C126.162 34.52 126.718 34.66 127.206 34.94C127.702 35.212 128.086 35.6 128.358 36.104C128.638 36.6 128.778 37.176 128.778 37.832ZM125.538 35.72C125.058 35.72 124.65 35.864 124.314 36.152C123.986 36.432 123.786 36.808 123.714 37.28H127.35C127.286 36.816 127.09 36.44 126.762 36.152C126.434 35.864 126.026 35.72 125.538 35.72ZM130.71 39.092C130.99 39.092 131.222 39.184 131.406 39.368C131.59 39.552 131.682 39.792 131.682 40.088C131.682 40.216 131.662 40.352 131.622 40.496C131.59 40.632 131.518 40.84 131.406 41.12L130.794 42.812H129.822L130.302 40.976C130.126 40.904 129.986 40.792 129.882 40.64C129.786 40.48 129.738 40.296 129.738 40.088C129.738 39.792 129.83 39.552 130.014 39.368C130.198 39.184 130.43 39.092 130.71 39.092ZM3.924 57.084C3.26 57.084 2.664 56.944 2.136 56.664C1.608 56.384 1.196 55.996 0.9 55.5C0.604 54.996 0.456 54.428 0.456 53.796C0.456 53.164 0.604 52.6 0.9 52.104C1.196 51.608 1.604 51.22 2.124 50.94C2.652 50.66 3.252 50.52 3.924 50.52C4.556 50.52 5.108 50.648 5.58 50.904C6.06 51.16 6.42 51.528 6.66 52.008L5.508 52.68C5.324 52.384 5.092 52.164 4.812 52.02C4.54 51.868 4.24 51.792 3.912 51.792C3.352 51.792 2.888 51.976 2.52 52.344C2.152 52.704 1.968 53.188 1.968 53.796C1.968 54.404 2.148 54.892 2.508 55.26C2.876 55.62 3.344 55.8 3.912 55.8C4.24 55.8 4.54 55.728 4.812 55.584C5.092 55.432 5.324 55.208 5.508 54.912L6.66 55.584C6.412 56.064 6.048 56.436 5.568 56.7C5.096 56.956 4.548 57.084 3.924 57.084ZM10.7429 57.084C10.0949 57.084 9.51091 56.944 8.99091 56.664C8.47091 56.384 8.06291 55.996 7.76691 55.5C7.47891 54.996 7.33491 54.428 7.33491 53.796C7.33491 53.164 7.47891 52.6 7.76691 52.104C8.06291 51.608 8.47091 51.22 8.99091 50.94C9.51091 50.66 10.0949 50.52 10.7429 50.52C11.3989 50.52 11.9869 50.66 12.5069 50.94C13.0269 51.22 13.4309 51.608 13.7189 52.104C14.0149 52.6 14.1629 53.164 14.1629 53.796C14.1629 54.428 14.0149 54.996 13.7189 55.5C13.4309 55.996 13.0269 56.384 12.5069 56.664C11.9869 56.944 11.3989 57.084 10.7429 57.084ZM10.7429 55.8C11.2949 55.8 11.7509 55.616 12.1109 55.248C12.4709 54.88 12.6509 54.396 12.6509 53.796C12.6509 53.196 12.4709 52.712 12.1109 52.344C11.7509 51.976 11.2949 51.792 10.7429 51.792C10.1909 51.792 9.73491 51.976 9.37491 52.344C9.02291 52.712 8.84691 53.196 8.84691 53.796C8.84691 54.396 9.02291 54.88 9.37491 55.248C9.73491 55.616 10.1909 55.8 10.7429 55.8ZM19.1493 50.52C19.7733 50.52 20.3293 50.656 20.8173 50.928C21.3133 51.2 21.7013 51.584 21.9813 52.08C22.2613 52.576 22.4013 53.148 22.4013 53.796C22.4013 54.444 22.2613 55.02 21.9813 55.524C21.7013 56.02 21.3133 56.404 20.8173 56.676C20.3293 56.948 19.7733 57.084 19.1493 57.084C18.2853 57.084 17.6013 56.796 17.0973 56.22V59.328H15.5973V50.592H17.0253V51.432C17.2733 51.128 17.5773 50.9 17.9373 50.748C18.3053 50.596 18.7093 50.52 19.1493 50.52ZM18.9813 55.8C19.5333 55.8 19.9853 55.616 20.3373 55.248C20.6973 54.88 20.8773 54.396 20.8773 53.796C20.8773 53.196 20.6973 52.712 20.3373 52.344C19.9853 51.976 19.5333 51.792 18.9813 51.792C18.6213 51.792 18.2973 51.876 18.0093 52.044C17.7213 52.204 17.4933 52.436 17.3253 52.74C17.1573 53.044 17.0733 53.396 17.0733 53.796C17.0733 54.196 17.1573 54.548 17.3253 54.852C17.4933 55.156 17.7213 55.392 18.0093 55.56C18.2973 55.72 18.6213 55.8 18.9813 55.8ZM29.6481 50.592L26.6481 57.516C26.3681 58.212 26.0281 58.7 25.6281 58.98C25.2281 59.268 24.7441 59.412 24.1761 59.412C23.8561 59.412 23.5401 59.36 23.2281 59.256C22.9161 59.152 22.6601 59.008 22.4601 58.824L23.0601 57.72C23.2041 57.856 23.3721 57.964 23.5641 58.044C23.7641 58.124 23.9641 58.164 24.1641 58.164C24.4281 58.164 24.6441 58.096 24.8121 57.96C24.9881 57.824 25.1481 57.596 25.2921 57.276L25.4001 57.024L22.6041 50.592H24.1641L26.1801 55.332L28.2081 50.592H29.6481ZM37.538 50.52C38.346 50.52 38.994 50.756 39.482 51.228C39.97 51.7 40.214 52.4 40.214 53.328V57H38.714V53.52C38.714 52.96 38.582 52.54 38.318 52.26C38.054 51.972 37.678 51.828 37.19 51.828C36.638 51.828 36.202 51.996 35.882 52.332C35.562 52.66 35.402 53.136 35.402 53.76V57H33.902V50.592H35.33V51.42C35.578 51.124 35.89 50.9 36.266 50.748C36.642 50.596 37.066 50.52 37.538 50.52ZM45.0554 57.084C44.4074 57.084 43.8234 56.944 43.3034 56.664C42.7834 56.384 42.3754 55.996 42.0794 55.5C41.7914 54.996 41.6474 54.428 41.6474 53.796C41.6474 53.164 41.7914 52.6 42.0794 52.104C42.3754 51.608 42.7834 51.22 43.3034 50.94C43.8234 50.66 44.4074 50.52 45.0554 50.52C45.7114 50.52 46.2994 50.66 46.8194 50.94C47.3394 51.22 47.7434 51.608 48.0314 52.104C48.3274 52.6 48.4754 53.164 48.4754 53.796C48.4754 54.428 48.3274 54.996 48.0314 55.5C47.7434 55.996 47.3394 56.384 46.8194 56.664C46.2994 56.944 45.7114 57.084 45.0554 57.084ZM45.0554 55.8C45.6074 55.8 46.0634 55.616 46.4234 55.248C46.7834 54.88 46.9634 54.396 46.9634 53.796C46.9634 53.196 46.7834 52.712 46.4234 52.344C46.0634 51.976 45.6074 51.792 45.0554 51.792C44.5034 51.792 44.0474 51.976 43.6874 52.344C43.3354 52.712 43.1594 53.196 43.1594 53.796C43.1594 54.396 43.3354 54.88 43.6874 55.248C44.0474 55.616 44.5034 55.8 45.0554 55.8ZM53.4618 50.52C54.0858 50.52 54.6418 50.656 55.1298 50.928C55.6258 51.2 56.0138 51.584 56.2938 52.08C56.5738 52.576 56.7138 53.148 56.7138 53.796C56.7138 54.444 56.5738 55.02 56.2938 55.524C56.0138 56.02 55.6258 56.404 55.1298 56.676C54.6418 56.948 54.0858 57.084 53.4618 57.084C53.0218 57.084 52.6178 57.008 52.2498 56.856C51.8898 56.704 51.5858 56.476 51.3378 56.172V57H49.9098V48.096H51.4098V51.372C51.6658 51.092 51.9658 50.88 52.3098 50.736C52.6618 50.592 53.0458 50.52 53.4618 50.52ZM53.2938 55.8C53.8458 55.8 54.2978 55.616 54.6498 55.248C55.0098 54.88 55.1898 54.396 55.1898 53.796C55.1898 53.196 55.0098 52.712 54.6498 52.344C54.2978 51.976 53.8458 51.792 53.2938 51.792C52.9338 51.792 52.6098 51.876 52.3218 52.044C52.0338 52.204 51.8058 52.436 51.6378 52.74C51.4698 53.044 51.3858 53.396 51.3858 53.796C51.3858 54.196 51.4698 54.548 51.6378 54.852C51.8058 55.156 52.0338 55.392 52.3218 55.56C52.6098 55.72 52.9338 55.8 53.2938 55.8ZM61.0163 57.084C60.3683 57.084 59.7843 56.944 59.2643 56.664C58.7443 56.384 58.3363 55.996 58.0403 55.5C57.7523 54.996 57.6083 54.428 57.6083 53.796C57.6083 53.164 57.7523 52.6 58.0403 52.104C58.3363 51.608 58.7443 51.22 59.2643 50.94C59.7843 50.66 60.3683 50.52 61.0163 50.52C61.6723 50.52 62.2603 50.66 62.7803 50.94C63.3003 51.22 63.7043 51.608 63.9923 52.104C64.2883 52.6 64.4363 53.164 64.4363 53.796C64.4363 54.428 64.2883 54.996 63.9923 55.5C63.7043 55.996 63.3003 56.384 62.7803 56.664C62.2603 56.944 61.6723 57.084 61.0163 57.084ZM61.0163 55.8C61.5683 55.8 62.0243 55.616 62.3843 55.248C62.7443 54.88 62.9243 54.396 62.9243 53.796C62.9243 53.196 62.7443 52.712 62.3843 52.344C62.0243 51.976 61.5683 51.792 61.0163 51.792C60.4643 51.792 60.0083 51.976 59.6483 52.344C59.2963 52.712 59.1203 53.196 59.1203 53.796C59.1203 54.396 59.2963 54.88 59.6483 55.248C60.0083 55.616 60.4643 55.8 61.0163 55.8ZM72.1467 48.096V57H70.7067V56.172C70.4587 56.476 70.1507 56.704 69.7827 56.856C69.4227 57.008 69.0227 57.084 68.5827 57.084C67.9667 57.084 67.4107 56.948 66.9147 56.676C66.4267 56.404 66.0427 56.02 65.7627 55.524C65.4827 55.02 65.3427 54.444 65.3427 53.796C65.3427 53.148 65.4827 52.576 65.7627 52.08C66.0427 51.584 66.4267 51.2 66.9147 50.928C67.4107 50.656 67.9667 50.52 68.5827 50.52C69.0067 50.52 69.3947 50.592 69.7467 50.736C70.0987 50.88 70.3987 51.096 70.6467 51.384V48.096H72.1467ZM68.7627 55.8C69.1227 55.8 69.4467 55.72 69.7347 55.56C70.0227 55.392 70.2507 55.156 70.4187 54.852C70.5867 54.548 70.6707 54.196 70.6707 53.796C70.6707 53.396 70.5867 53.044 70.4187 52.74C70.2507 52.436 70.0227 52.204 69.7347 52.044C69.4467 51.876 69.1227 51.792 68.7627 51.792C68.4027 51.792 68.0787 51.876 67.7907 52.044C67.5027 52.204 67.2747 52.436 67.1067 52.74C66.9387 53.044 66.8547 53.396 66.8547 53.796C66.8547 54.196 66.9387 54.548 67.1067 54.852C67.2747 55.156 67.5027 55.392 67.7907 55.56C68.0787 55.72 68.4027 55.8 68.7627 55.8ZM80.109 50.592L77.109 57.516C76.829 58.212 76.489 58.7 76.089 58.98C75.689 59.268 75.205 59.412 74.637 59.412C74.317 59.412 74.001 59.36 73.689 59.256C73.377 59.152 73.121 59.008 72.921 58.824L73.521 57.72C73.665 57.856 73.833 57.964 74.025 58.044C74.225 58.124 74.425 58.164 74.625 58.164C74.889 58.164 75.105 58.096 75.273 57.96C75.449 57.824 75.609 57.596 75.753 57.276L75.861 57.024L73.065 50.592H74.625L76.641 55.332L78.669 50.592H80.109Z" fill="#858E97"/>
</svg>
