<svg width="221" height="75" viewBox="0 0 221 75" fill="none" xmlns="http://www.w3.org/2000/svg">
<path d="M8.812 12.096H4.668L3.898 14H1.07L5.396 4.2H8.126L12.466 14H9.582L8.812 12.096ZM8 10.052L6.74 6.916L5.48 10.052H8ZM17.1747 14.126C16.3347 14.126 15.5834 13.958 14.9207 13.622C14.258 13.286 13.74 12.8193 13.3667 12.222C13.0027 11.6247 12.8207 10.948 12.8207 10.192C12.8207 9.436 13.0027 8.764 13.3667 8.176C13.74 7.57867 14.258 7.11667 14.9207 6.79C15.5834 6.454 16.3347 6.286 17.1747 6.286C18.0334 6.286 18.7754 6.47267 19.4007 6.846C20.026 7.21 20.4694 7.71867 20.7307 8.372L18.6727 9.422C18.3274 8.74067 17.8234 8.4 17.1607 8.4C16.6847 8.4 16.288 8.55867 15.9707 8.876C15.6627 9.19333 15.5087 9.632 15.5087 10.192C15.5087 10.7613 15.6627 11.2093 15.9707 11.536C16.288 11.8533 16.6847 12.012 17.1607 12.012C17.8234 12.012 18.3274 11.6713 18.6727 10.99L20.7307 12.04C20.4694 12.6933 20.026 13.2067 19.4007 13.58C18.7754 13.944 18.0334 14.126 17.1747 14.126ZM25.5692 14.126C24.7292 14.126 23.9779 13.958 23.3152 13.622C22.6526 13.286 22.1346 12.8193 21.7612 12.222C21.3972 11.6247 21.2152 10.948 21.2152 10.192C21.2152 9.436 21.3972 8.764 21.7612 8.176C22.1346 7.57867 22.6526 7.11667 23.3152 6.79C23.9779 6.454 24.7292 6.286 25.5692 6.286C26.4279 6.286 27.1699 6.47267 27.7952 6.846C28.4206 7.21 28.8639 7.71867 29.1252 8.372L27.0672 9.422C26.7219 8.74067 26.2179 8.4 25.5552 8.4C25.0792 8.4 24.6826 8.55867 24.3652 8.876C24.0572 9.19333 23.9032 9.632 23.9032 10.192C23.9032 10.7613 24.0572 11.2093 24.3652 11.536C24.6826 11.8533 25.0792 12.012 25.5552 12.012C26.2179 12.012 26.7219 11.6713 27.0672 10.99L29.1252 12.04C28.8639 12.6933 28.4206 13.2067 27.7952 13.58C27.1699 13.944 26.4279 14.126 25.5692 14.126ZM33.8938 14.126C33.0818 14.126 32.3491 13.958 31.6958 13.622C31.0424 13.286 30.5291 12.8193 30.1558 12.222C29.7918 11.6247 29.6098 10.948 29.6098 10.192C29.6098 9.44533 29.7918 8.77333 30.1558 8.176C30.5291 7.57867 31.0378 7.11667 31.6818 6.79C32.3351 6.454 33.0724 6.286 33.8938 6.286C34.7151 6.286 35.4524 6.454 36.1058 6.79C36.7591 7.11667 37.2678 7.57867 37.6318 8.176C37.9958 8.764 38.1778 9.436 38.1778 10.192C38.1778 10.948 37.9958 11.6247 37.6318 12.222C37.2678 12.8193 36.7591 13.286 36.1058 13.622C35.4524 13.958 34.7151 14.126 33.8938 14.126ZM33.8938 12.012C34.3604 12.012 34.7431 11.8533 35.0418 11.536C35.3404 11.2093 35.4898 10.7613 35.4898 10.192C35.4898 9.632 35.3404 9.19333 35.0418 8.876C34.7431 8.55867 34.3604 8.4 33.8938 8.4C33.4271 8.4 33.0444 8.55867 32.7458 8.876C32.4471 9.19333 32.2978 9.632 32.2978 10.192C32.2978 10.7613 32.4471 11.2093 32.7458 11.536C33.0444 11.8533 33.4271 12.012 33.8938 12.012ZM48.2453 11.872V15.582H45.7813V14H39.4253V6.412H42.0713V11.872H44.5353V6.412H47.1953V11.872H48.2453ZM49.3921 6.412H52.0381V10.388L55.2161 6.412H57.6661V14H55.0061V10.01L51.8561 14H49.3921V6.412ZM62.5486 6.286C63.8086 6.286 64.7699 6.57533 65.4326 7.154C66.0953 7.72333 66.4266 8.60067 66.4266 9.786V14H63.9486V13.02C63.5659 13.7573 62.8193 14.126 61.7086 14.126C61.1206 14.126 60.6119 14.0233 60.1826 13.818C59.7533 13.6127 59.4266 13.3373 59.2026 12.992C58.9879 12.6373 58.8806 12.236 58.8806 11.788C58.8806 11.0693 59.1559 10.514 59.7066 10.122C60.2573 9.72067 61.1066 9.52 62.2546 9.52H63.7666C63.7199 8.71733 63.1833 8.316 62.1566 8.316C61.7926 8.316 61.4239 8.37667 61.0506 8.498C60.6773 8.61 60.3599 8.76867 60.0986 8.974L59.2026 7.168C59.6226 6.888 60.1313 6.67333 60.7286 6.524C61.3353 6.36533 61.9419 6.286 62.5486 6.286ZM62.4506 12.446C62.7586 12.446 63.0293 12.3713 63.2626 12.222C63.4959 12.0727 63.6639 11.8533 63.7666 11.564V10.906H62.6186C61.8439 10.906 61.4566 11.1627 61.4566 11.676C61.4566 11.9093 61.5453 12.096 61.7226 12.236C61.8999 12.376 62.1426 12.446 62.4506 12.446ZM76.8469 11.872V15.582H74.3829V14H68.0269V6.412H70.6729V11.872H73.1369V6.412H75.7969V11.872H76.8469ZM77.9937 6.412H80.6397V10.388L83.8177 6.412H86.2677V14H83.6077V10.01L80.4577 14H77.9937V6.412ZM95.1962 6.412V14H92.8302V11.942H91.6262L90.2822 14H87.4682L89.1482 11.578C88.6442 11.354 88.2568 11.0507 87.9862 10.668C87.7248 10.276 87.5942 9.80933 87.5942 9.268C87.5942 8.36267 87.9302 7.66267 88.6022 7.168C89.2742 6.664 90.1982 6.412 91.3742 6.412H95.1962ZM91.4302 8.512C90.6835 8.512 90.3102 8.79667 90.3102 9.366C90.3102 9.66467 90.3988 9.884 90.5762 10.024C90.7628 10.164 91.0428 10.234 91.4162 10.234H92.8302V8.512H91.4302ZM107.176 10.024C108.044 10.3133 108.478 10.9107 108.478 11.816C108.478 12.4973 108.212 13.034 107.68 13.426C107.148 13.8087 106.364 14 105.328 14H101.058V6.412H105.132C106.121 6.412 106.887 6.58467 107.428 6.93C107.979 7.27533 108.254 7.76067 108.254 8.386C108.254 8.75 108.161 9.072 107.974 9.352C107.787 9.632 107.521 9.856 107.176 10.024ZM103.438 9.464H104.894C105.51 9.464 105.818 9.23533 105.818 8.778C105.818 8.33933 105.51 8.12 104.894 8.12H103.438V9.464ZM105.09 12.278C105.734 12.278 106.056 12.0447 106.056 11.578C106.056 11.1113 105.743 10.878 105.118 10.878H103.438V12.278H105.09ZM117.508 10.22C117.508 10.2387 117.494 10.458 117.466 10.878H111.95C112.062 11.27 112.276 11.5733 112.594 11.788C112.92 11.9933 113.326 12.096 113.812 12.096C114.176 12.096 114.488 12.0447 114.75 11.942C115.02 11.8393 115.291 11.6713 115.562 11.438L116.962 12.894C116.224 13.7153 115.146 14.126 113.728 14.126C112.841 14.126 112.062 13.958 111.39 13.622C110.718 13.286 110.195 12.8193 109.822 12.222C109.458 11.6247 109.276 10.948 109.276 10.192C109.276 9.44533 109.453 8.778 109.808 8.19C110.172 7.59267 110.671 7.126 111.306 6.79C111.94 6.454 112.654 6.286 113.448 6.286C114.204 6.286 114.89 6.44467 115.506 6.762C116.122 7.07 116.607 7.52267 116.962 8.12C117.326 8.708 117.508 9.408 117.508 10.22ZM113.462 8.176C113.051 8.176 112.706 8.29267 112.426 8.526C112.155 8.75933 111.982 9.07667 111.908 9.478H115.016C114.941 9.07667 114.764 8.75933 114.484 8.526C114.213 8.29267 113.872 8.176 113.462 8.176ZM127.86 11.872V15.568H125.396V14H120.622V15.568H118.144V11.872H118.424C118.882 11.8627 119.199 11.6153 119.376 11.13C119.554 10.6353 119.661 9.94467 119.698 9.058L119.796 6.412H126.81V11.872H127.86ZM122.092 9.254C122.064 9.93533 122.013 10.4813 121.938 10.892C121.864 11.3027 121.724 11.6293 121.518 11.872H124.15V8.526H122.12L122.092 9.254ZM137.095 6.412L133.819 14.308C133.437 15.2413 132.97 15.8947 132.419 16.268C131.869 16.6507 131.197 16.842 130.403 16.842C130.002 16.842 129.596 16.7767 129.185 16.646C128.784 16.5247 128.457 16.3613 128.205 16.156L129.129 14.294C129.279 14.434 129.456 14.5413 129.661 14.616C129.876 14.7 130.091 14.742 130.305 14.742C130.557 14.742 130.763 14.6907 130.921 14.588C131.089 14.4853 131.229 14.322 131.341 14.098L128.093 6.412H130.823L132.685 11.046L134.561 6.412H137.095ZM149.985 6.412V14H137.959V6.412H140.605V11.872H142.663V6.412H145.309V11.872H147.353V6.412H149.985ZM151.007 11.872V15.456H148.543V14H147.297V11.872H151.007ZM151.781 6.412H154.427V10.388L157.605 6.412H160.055V14H157.395V10.01L154.245 14H151.781V6.412ZM166.645 14L165.287 12.012L163.831 14H160.947L163.831 10.206L161.031 6.412H164.027L165.371 8.33L166.771 6.412H169.585L166.785 10.108L169.683 14H166.645ZM9.988 24.412L6.712 32.308C6.32933 33.2413 5.86267 33.8947 5.312 34.268C4.76133 34.6507 4.08933 34.842 3.296 34.842C2.89467 34.842 2.48867 34.7767 2.078 34.646C1.67667 34.5247 1.35 34.3613 1.098 34.156L2.022 32.294C2.17133 32.434 2.34867 32.5413 2.554 32.616C2.76867 32.7 2.98333 32.742 3.198 32.742C3.45 32.742 3.65533 32.6907 3.814 32.588C3.982 32.4853 4.122 32.322 4.234 32.098L0.986 24.412H3.716L5.578 29.046L7.454 24.412H9.988ZM10.8511 24.412H13.4971V27.226H16.2271V24.412H18.8871V32H16.2271V29.34H13.4971V32H10.8511V24.412ZM20.6812 24.412H23.3272V28.388L26.5052 24.412H28.9552V32H26.2952V28.01L23.1452 32H20.6812V24.412ZM36.8617 28.024C37.7297 28.3133 38.1637 28.9107 38.1637 29.816C38.1637 30.4973 37.8977 31.034 37.3657 31.426C36.8337 31.8087 36.0497 32 35.0137 32H30.7437V24.412H34.8177C35.807 24.412 36.5723 24.5847 37.1137 24.93C37.6643 25.2753 37.9397 25.7607 37.9397 26.386C37.9397 26.75 37.8463 27.072 37.6597 27.352C37.473 27.632 37.207 27.856 36.8617 28.024ZM33.1237 27.464H34.5797C35.1957 27.464 35.5037 27.2353 35.5037 26.778C35.5037 26.3393 35.1957 26.12 34.5797 26.12H33.1237V27.464ZM34.7757 30.278C35.4197 30.278 35.7417 30.0447 35.7417 29.578C35.7417 29.1113 35.429 28.878 34.8037 28.878H33.1237V30.278H34.7757ZM47.1933 28.22C47.1933 28.2387 47.1793 28.458 47.1513 28.878H41.6353C41.7473 29.27 41.962 29.5733 42.2793 29.788C42.606 29.9933 43.012 30.096 43.4973 30.096C43.8613 30.096 44.174 30.0447 44.4353 29.942C44.706 29.8393 44.9767 29.6713 45.2473 29.438L46.6473 30.894C45.91 31.7153 44.832 32.126 43.4133 32.126C42.5267 32.126 41.7473 31.958 41.0753 31.622C40.4033 31.286 39.8807 30.8193 39.5073 30.222C39.1433 29.6247 38.9613 28.948 38.9613 28.192C38.9613 27.4453 39.1387 26.778 39.4933 26.19C39.8573 25.5927 40.3567 25.126 40.9913 24.79C41.626 24.454 42.34 24.286 43.1333 24.286C43.8893 24.286 44.5753 24.4447 45.1913 24.762C45.8073 25.07 46.2927 25.5227 46.6473 26.12C47.0113 26.708 47.1933 27.408 47.1933 28.22ZM43.1473 26.176C42.7367 26.176 42.3913 26.2927 42.1113 26.526C41.8407 26.7593 41.668 27.0767 41.5933 27.478H44.7013C44.6267 27.0767 44.4493 26.7593 44.1693 26.526C43.8987 26.2927 43.558 26.176 43.1473 26.176ZM53.3731 24.286C54.0638 24.286 54.6891 24.4493 55.2491 24.776C55.8185 25.0933 56.2665 25.5507 56.5931 26.148C56.9291 26.736 57.0971 27.422 57.0971 28.206C57.0971 28.99 56.9291 29.6807 56.5931 30.278C56.2665 30.866 55.8185 31.3233 55.2491 31.65C54.6891 31.9673 54.0638 32.126 53.3731 32.126C52.4865 32.126 51.7818 31.86 51.2591 31.328V34.716H48.5991V24.412H51.1331V25.168C51.6278 24.58 52.3745 24.286 53.3731 24.286ZM52.8131 30.012C53.2798 30.012 53.6625 29.8533 53.9611 29.536C54.2598 29.2093 54.4091 28.766 54.4091 28.206C54.4091 27.646 54.2598 27.2073 53.9611 26.89C53.6625 26.5633 53.2798 26.4 52.8131 26.4C52.3465 26.4 51.9638 26.5633 51.6651 26.89C51.3665 27.2073 51.2171 27.646 51.2171 28.206C51.2171 28.766 51.3665 29.2093 51.6651 29.536C51.9638 29.8533 52.3465 30.012 52.8131 30.012ZM62.1825 32.126C61.3425 32.126 60.5912 31.958 59.9285 31.622C59.2658 31.286 58.7478 30.8193 58.3745 30.222C58.0105 29.6247 57.8285 28.948 57.8285 28.192C57.8285 27.436 58.0105 26.764 58.3745 26.176C58.7478 25.5787 59.2658 25.1167 59.9285 24.79C60.5912 24.454 61.3425 24.286 62.1825 24.286C63.0412 24.286 63.7832 24.4727 64.4085 24.846C65.0338 25.21 65.4772 25.7187 65.7385 26.372L63.6805 27.422C63.3352 26.7407 62.8312 26.4 62.1685 26.4C61.6925 26.4 61.2958 26.5587 60.9785 26.876C60.6705 27.1933 60.5165 27.632 60.5165 28.192C60.5165 28.7613 60.6705 29.2093 60.9785 29.536C61.2958 29.8533 61.6925 30.012 62.1685 30.012C62.8312 30.012 63.3352 29.6713 63.6805 28.99L65.7385 30.04C65.4772 30.6933 65.0338 31.2067 64.4085 31.58C63.7832 31.944 63.0412 32.126 62.1825 32.126ZM66.8511 24.412H69.4971V28.388L72.6751 24.412H75.1251V32H72.4651V28.01L69.3151 32H66.8511V24.412ZM83.6896 26.526H81.2536V32H78.6076V26.526H76.1576V24.412H83.6896V26.526ZM92.1054 28.22C92.1054 28.2387 92.0914 28.458 92.0634 28.878H86.5474C86.6594 29.27 86.8741 29.5733 87.1914 29.788C87.5181 29.9933 87.9241 30.096 88.4094 30.096C88.7734 30.096 89.0861 30.0447 89.3474 29.942C89.6181 29.8393 89.8888 29.6713 90.1594 29.438L91.5594 30.894C90.8221 31.7153 89.7441 32.126 88.3254 32.126C87.4388 32.126 86.6594 31.958 85.9874 31.622C85.3154 31.286 84.7928 30.8193 84.4194 30.222C84.0554 29.6247 83.8734 28.948 83.8734 28.192C83.8734 27.4453 84.0508 26.778 84.4054 26.19C84.7694 25.5927 85.2688 25.126 85.9034 24.79C86.5381 24.454 87.2521 24.286 88.0454 24.286C88.8014 24.286 89.4874 24.4447 90.1034 24.762C90.7194 25.07 91.2048 25.5227 91.5594 26.12C91.9234 26.708 92.1054 27.408 92.1054 28.22ZM88.0594 26.176C87.6488 26.176 87.3034 26.2927 87.0234 26.526C86.7528 26.7593 86.5801 27.0767 86.5054 27.478H89.6134C89.5388 27.0767 89.3614 26.7593 89.0814 26.526C88.8108 26.2927 88.4701 26.176 88.0594 26.176ZM100.055 26.526H97.6188V32H94.9728V26.526H92.5228V24.412H100.055V26.526ZM104.523 32.126C103.711 32.126 102.978 31.958 102.325 31.622C101.671 31.286 101.158 30.8193 100.785 30.222C100.421 29.6247 100.239 28.948 100.239 28.192C100.239 27.4453 100.421 26.7733 100.785 26.176C101.158 25.5787 101.667 25.1167 102.311 24.79C102.964 24.454 103.701 24.286 104.523 24.286C105.344 24.286 106.081 24.454 106.735 24.79C107.388 25.1167 107.897 25.5787 108.261 26.176C108.625 26.764 108.807 27.436 108.807 28.192C108.807 28.948 108.625 29.6247 108.261 30.222C107.897 30.8193 107.388 31.286 106.735 31.622C106.081 31.958 105.344 32.126 104.523 32.126ZM104.523 30.012C104.989 30.012 105.372 29.8533 105.671 29.536C105.969 29.2093 106.119 28.7613 106.119 28.192C106.119 27.632 105.969 27.1933 105.671 26.876C105.372 26.5587 104.989 26.4 104.523 26.4C104.056 26.4 103.673 26.5587 103.375 26.876C103.076 27.1933 102.927 27.632 102.927 28.192C102.927 28.7613 103.076 29.2093 103.375 29.536C103.673 29.8533 104.056 30.012 104.523 30.012ZM116.172 28.024C117.04 28.3133 117.474 28.9107 117.474 29.816C117.474 30.4973 117.208 31.034 116.676 31.426C116.144 31.8087 115.36 32 114.324 32H110.054V24.412H114.128C115.118 24.412 115.883 24.5847 116.424 24.93C116.975 25.2753 117.25 25.7607 117.25 26.386C117.25 26.75 117.157 27.072 116.97 27.352C116.784 27.632 116.518 27.856 116.172 28.024ZM112.434 27.464H113.89C114.506 27.464 114.814 27.2353 114.814 26.778C114.814 26.3393 114.506 26.12 113.89 26.12H112.434V27.464ZM114.086 30.278C114.73 30.278 115.052 30.0447 115.052 29.578C115.052 29.1113 114.74 28.878 114.114 28.878H112.434V30.278H114.086Z" fill="#BEC7CC"/>
<path d="M8.576 57.056H4.376L3.548 59H1.94L5.72 50.6H7.256L11.048 59H9.416L8.576 57.056ZM8.06 55.832L6.476 52.16L4.904 55.832H8.06ZM13.8937 59.084C13.3737 59.084 12.8657 59.016 12.3697 58.88C11.8737 58.744 11.4777 58.572 11.1817 58.364L11.7577 57.224C12.0457 57.416 12.3897 57.572 12.7897 57.692C13.1977 57.804 13.5977 57.86 13.9897 57.86C14.8857 57.86 15.3337 57.624 15.3337 57.152C15.3337 56.928 15.2177 56.772 14.9857 56.684C14.7617 56.596 14.3977 56.512 13.8937 56.432C13.3657 56.352 12.9337 56.26 12.5977 56.156C12.2697 56.052 11.9817 55.872 11.7337 55.616C11.4937 55.352 11.3737 54.988 11.3737 54.524C11.3737 53.916 11.6257 53.432 12.1297 53.072C12.6417 52.704 13.3297 52.52 14.1937 52.52C14.6337 52.52 15.0737 52.572 15.5137 52.676C15.9537 52.772 16.3137 52.904 16.5937 53.072L16.0177 54.212C15.4737 53.892 14.8617 53.732 14.1817 53.732C13.7417 53.732 13.4057 53.8 13.1737 53.936C12.9497 54.064 12.8377 54.236 12.8377 54.452C12.8377 54.692 12.9577 54.864 13.1977 54.968C13.4457 55.064 13.8257 55.156 14.3377 55.244C14.8497 55.324 15.2697 55.416 15.5977 55.52C15.9257 55.624 16.2057 55.8 16.4377 56.048C16.6777 56.296 16.7977 56.648 16.7977 57.104C16.7977 57.704 16.5377 58.184 16.0177 58.544C15.4977 58.904 14.7897 59.084 13.8937 59.084ZM20.0695 59.084C19.5495 59.084 19.0415 59.016 18.5455 58.88C18.0495 58.744 17.6535 58.572 17.3575 58.364L17.9335 57.224C18.2215 57.416 18.5655 57.572 18.9655 57.692C19.3735 57.804 19.7735 57.86 20.1655 57.86C21.0615 57.86 21.5095 57.624 21.5095 57.152C21.5095 56.928 21.3935 56.772 21.1615 56.684C20.9375 56.596 20.5735 56.512 20.0695 56.432C19.5415 56.352 19.1095 56.26 18.7735 56.156C18.4455 56.052 18.1575 55.872 17.9095 55.616C17.6695 55.352 17.5495 54.988 17.5495 54.524C17.5495 53.916 17.8015 53.432 18.3055 53.072C18.8175 52.704 19.5055 52.52 20.3695 52.52C20.8095 52.52 21.2495 52.572 21.6895 52.676C22.1295 52.772 22.4895 52.904 22.7695 53.072L22.1935 54.212C21.6495 53.892 21.0375 53.732 20.3575 53.732C19.9175 53.732 19.5815 53.8 19.3495 53.936C19.1255 54.064 19.0135 54.236 19.0135 54.452C19.0135 54.692 19.1335 54.864 19.3735 54.968C19.6215 55.064 20.0015 55.156 20.5135 55.244C21.0255 55.324 21.4455 55.416 21.7735 55.52C22.1015 55.624 22.3815 55.8 22.6135 56.048C22.8535 56.296 22.9735 56.648 22.9735 57.104C22.9735 57.704 22.7135 58.184 22.1935 58.544C21.6735 58.904 20.9655 59.084 20.0695 59.084ZM27.1453 59.084C26.4973 59.084 25.9133 58.944 25.3933 58.664C24.8733 58.384 24.4653 57.996 24.1693 57.5C23.8813 56.996 23.7373 56.428 23.7373 55.796C23.7373 55.164 23.8813 54.6 24.1693 54.104C24.4653 53.608 24.8733 53.22 25.3933 52.94C25.9133 52.66 26.4973 52.52 27.1453 52.52C27.8013 52.52 28.3893 52.66 28.9093 52.94C29.4293 53.22 29.8333 53.608 30.1213 54.104C30.4173 54.6 30.5653 55.164 30.5653 55.796C30.5653 56.428 30.4173 56.996 30.1213 57.5C29.8333 57.996 29.4293 58.384 28.9093 58.664C28.3893 58.944 27.8013 59.084 27.1453 59.084ZM27.1453 57.8C27.6973 57.8 28.1533 57.616 28.5133 57.248C28.8733 56.88 29.0533 56.396 29.0533 55.796C29.0533 55.196 28.8733 54.712 28.5133 54.344C28.1533 53.976 27.6973 53.792 27.1453 53.792C26.5933 53.792 26.1373 53.976 25.7773 54.344C25.4253 54.712 25.2493 55.196 25.2493 55.796C25.2493 56.396 25.4253 56.88 25.7773 57.248C26.1373 57.616 26.5933 57.8 27.1453 57.8ZM33.9796 59.084C33.4596 59.084 32.9516 59.016 32.4556 58.88C31.9596 58.744 31.5636 58.572 31.2676 58.364L31.8436 57.224C32.1316 57.416 32.4756 57.572 32.8756 57.692C33.2836 57.804 33.6836 57.86 34.0756 57.86C34.9716 57.86 35.4196 57.624 35.4196 57.152C35.4196 56.928 35.3036 56.772 35.0716 56.684C34.8476 56.596 34.4836 56.512 33.9796 56.432C33.4516 56.352 33.0196 56.26 32.6836 56.156C32.3556 56.052 32.0676 55.872 31.8196 55.616C31.5796 55.352 31.4596 54.988 31.4596 54.524C31.4596 53.916 31.7116 53.432 32.2156 53.072C32.7276 52.704 33.4156 52.52 34.2796 52.52C34.7196 52.52 35.1596 52.572 35.5996 52.676C36.0396 52.772 36.3996 52.904 36.6796 53.072L36.1036 54.212C35.5596 53.892 34.9476 53.732 34.2676 53.732C33.8276 53.732 33.4916 53.8 33.2596 53.936C33.0356 54.064 32.9236 54.236 32.9236 54.452C32.9236 54.692 33.0436 54.864 33.2836 54.968C33.5316 55.064 33.9116 55.156 34.4236 55.244C34.9356 55.324 35.3556 55.416 35.6836 55.52C36.0116 55.624 36.2916 55.8 36.5236 56.048C36.7636 56.296 36.8836 56.648 36.8836 57.104C36.8836 57.704 36.6236 58.184 36.1036 58.544C35.5836 58.904 34.8756 59.084 33.9796 59.084ZM38.1754 52.592H39.6754V59H38.1754V52.592ZM38.9314 51.536C38.6594 51.536 38.4314 51.452 38.2474 51.284C38.0634 51.108 37.9714 50.892 37.9714 50.636C37.9714 50.38 38.0634 50.168 38.2474 50C38.4314 49.824 38.6594 49.736 38.9314 49.736C39.2034 49.736 39.4314 49.82 39.6154 49.988C39.7994 50.148 39.8914 50.352 39.8914 50.6C39.8914 50.864 39.7994 51.088 39.6154 51.272C39.4394 51.448 39.2114 51.536 38.9314 51.536ZM44.0922 52.52C45.0362 52.52 45.7562 52.748 46.2522 53.204C46.7562 53.652 47.0082 54.332 47.0082 55.244V59H45.5922V58.22C45.4082 58.5 45.1442 58.716 44.8002 58.868C44.4642 59.012 44.0562 59.084 43.5762 59.084C43.0962 59.084 42.6762 59.004 42.3162 58.844C41.9562 58.676 41.6762 58.448 41.4762 58.16C41.2842 57.864 41.1882 57.532 41.1882 57.164C41.1882 56.588 41.4002 56.128 41.8242 55.784C42.2562 55.432 42.9322 55.256 43.8522 55.256H45.5082V55.16C45.5082 54.712 45.3722 54.368 45.1002 54.128C44.8362 53.888 44.4402 53.768 43.9122 53.768C43.5522 53.768 43.1962 53.824 42.8442 53.936C42.5002 54.048 42.2082 54.204 41.9682 54.404L41.3802 53.312C41.7162 53.056 42.1202 52.86 42.5922 52.724C43.0642 52.588 43.5642 52.52 44.0922 52.52ZM43.8882 57.992C44.2642 57.992 44.5962 57.908 44.8842 57.74C45.1802 57.564 45.3882 57.316 45.5082 56.996V56.252H43.9602C43.0962 56.252 42.6642 56.536 42.6642 57.104C42.6642 57.376 42.7722 57.592 42.9882 57.752C43.2042 57.912 43.5042 57.992 43.8882 57.992ZM52.7852 58.652C52.6092 58.796 52.3932 58.904 52.1372 58.976C51.8892 59.048 51.6252 59.084 51.3452 59.084C50.6412 59.084 50.0972 58.9 49.7132 58.532C49.3292 58.164 49.1372 57.628 49.1372 56.924V53.84H48.0812V52.64H49.1372V51.176H50.6372V52.64H52.3532V53.84H50.6372V56.888C50.6372 57.2 50.7132 57.44 50.8652 57.608C51.0172 57.768 51.2372 57.848 51.5252 57.848C51.8612 57.848 52.1412 57.76 52.3652 57.584L52.7852 58.652ZM54.0192 52.592H55.5192V59H54.0192V52.592ZM54.7752 51.536C54.5032 51.536 54.2752 51.452 54.0912 51.284C53.9072 51.108 53.8152 50.892 53.8152 50.636C53.8152 50.38 53.9072 50.168 54.0912 50C54.2752 49.824 54.5032 49.736 54.7752 49.736C55.0472 49.736 55.2752 49.82 55.4592 49.988C55.6432 50.148 55.7352 50.352 55.7352 50.6C55.7352 50.864 55.6432 51.088 55.4592 51.272C55.2832 51.448 55.0552 51.536 54.7752 51.536ZM60.3679 59.084C59.7199 59.084 59.1359 58.944 58.6159 58.664C58.0959 58.384 57.6879 57.996 57.3919 57.5C57.1039 56.996 56.9599 56.428 56.9599 55.796C56.9599 55.164 57.1039 54.6 57.3919 54.104C57.6879 53.608 58.0959 53.22 58.6159 52.94C59.1359 52.66 59.7199 52.52 60.3679 52.52C61.0239 52.52 61.6119 52.66 62.1319 52.94C62.6519 53.22 63.0559 53.608 63.3439 54.104C63.6399 54.6 63.7879 55.164 63.7879 55.796C63.7879 56.428 63.6399 56.996 63.3439 57.5C63.0559 57.996 62.6519 58.384 62.1319 58.664C61.6119 58.944 61.0239 59.084 60.3679 59.084ZM60.3679 57.8C60.9199 57.8 61.3759 57.616 61.7359 57.248C62.0959 56.88 62.2759 56.396 62.2759 55.796C62.2759 55.196 62.0959 54.712 61.7359 54.344C61.3759 53.976 60.9199 53.792 60.3679 53.792C59.8159 53.792 59.3599 53.976 58.9999 54.344C58.6479 54.712 58.4719 55.196 58.4719 55.796C58.4719 56.396 58.6479 56.88 58.9999 57.248C59.3599 57.616 59.8159 57.8 60.3679 57.8ZM68.8583 52.52C69.6663 52.52 70.3143 52.756 70.8023 53.228C71.2903 53.7 71.5343 54.4 71.5343 55.328V59H70.0343V55.52C70.0343 54.96 69.9023 54.54 69.6383 54.26C69.3743 53.972 68.9983 53.828 68.5103 53.828C67.9583 53.828 67.5223 53.996 67.2023 54.332C66.8823 54.66 66.7223 55.136 66.7223 55.76V59H65.2223V52.592H66.6503V53.42C66.8983 53.124 67.2103 52.9 67.5863 52.748C67.9623 52.596 68.3863 52.52 68.8583 52.52ZM79.6335 59.084C78.9855 59.084 78.4015 58.944 77.8815 58.664C77.3615 58.384 76.9535 57.996 76.6575 57.5C76.3695 56.996 76.2255 56.428 76.2255 55.796C76.2255 55.164 76.3695 54.6 76.6575 54.104C76.9535 53.608 77.3615 53.22 77.8815 52.94C78.4015 52.66 78.9855 52.52 79.6335 52.52C80.2895 52.52 80.8775 52.66 81.3975 52.94C81.9175 53.22 82.3215 53.608 82.6095 54.104C82.9055 54.6 83.0535 55.164 83.0535 55.796C83.0535 56.428 82.9055 56.996 82.6095 57.5C82.3215 57.996 81.9175 58.384 81.3975 58.664C80.8775 58.944 80.2895 59.084 79.6335 59.084ZM79.6335 57.8C80.1855 57.8 80.6415 57.616 81.0015 57.248C81.3615 56.88 81.5415 56.396 81.5415 55.796C81.5415 55.196 81.3615 54.712 81.0015 54.344C80.6415 53.976 80.1855 53.792 79.6335 53.792C79.0815 53.792 78.6255 53.976 78.2655 54.344C77.9135 54.712 77.7375 55.196 77.7375 55.796C77.7375 56.396 77.9135 56.88 78.2655 57.248C78.6255 57.616 79.0815 57.8 79.6335 57.8ZM87.0919 51.224C86.4599 51.224 86.1439 51.568 86.1439 52.256V52.64H87.9079V53.84H86.1919V59H84.6919V53.84H83.6359V52.64H84.6919V52.232C84.6919 51.544 84.8919 51.004 85.2919 50.612C85.6919 50.212 86.2559 50.012 86.9839 50.012C87.5599 50.012 88.0119 50.128 88.3399 50.36L87.9199 51.488C87.6639 51.312 87.3879 51.224 87.0919 51.224ZM92.378 50.6H93.938V57.68H98.33V59H92.378V50.6ZM105.383 55.832C105.383 55.936 105.375 56.084 105.359 56.276H100.331C100.419 56.748 100.647 57.124 101.015 57.404C101.391 57.676 101.855 57.812 102.407 57.812C103.111 57.812 103.691 57.58 104.147 57.116L104.951 58.04C104.663 58.384 104.299 58.644 103.859 58.82C103.419 58.996 102.923 59.084 102.371 59.084C101.667 59.084 101.047 58.944 100.511 58.664C99.975 58.384 99.559 57.996 99.263 57.5C98.975 56.996 98.831 56.428 98.831 55.796C98.831 55.172 98.971 54.612 99.251 54.116C99.539 53.612 99.935 53.22 100.439 52.94C100.943 52.66 101.511 52.52 102.143 52.52C102.767 52.52 103.323 52.66 103.811 52.94C104.307 53.212 104.691 53.6 104.963 54.104C105.243 54.6 105.383 55.176 105.383 55.832ZM102.143 53.72C101.663 53.72 101.255 53.864 100.919 54.152C100.591 54.432 100.391 54.808 100.319 55.28H103.955C103.891 54.816 103.695 54.44 103.367 54.152C103.039 53.864 102.631 53.72 102.143 53.72ZM109.096 52.52C110.04 52.52 110.76 52.748 111.256 53.204C111.76 53.652 112.012 54.332 112.012 55.244V59H110.596V58.22C110.412 58.5 110.148 58.716 109.804 58.868C109.468 59.012 109.06 59.084 108.58 59.084C108.1 59.084 107.68 59.004 107.32 58.844C106.96 58.676 106.68 58.448 106.48 58.16C106.288 57.864 106.192 57.532 106.192 57.164C106.192 56.588 106.404 56.128 106.828 55.784C107.26 55.432 107.936 55.256 108.856 55.256H110.512V55.16C110.512 54.712 110.376 54.368 110.104 54.128C109.84 53.888 109.444 53.768 108.916 53.768C108.556 53.768 108.2 53.824 107.848 53.936C107.504 54.048 107.212 54.204 106.972 54.404L106.384 53.312C106.72 53.056 107.124 52.86 107.596 52.724C108.068 52.588 108.568 52.52 109.096 52.52ZM108.892 57.992C109.268 57.992 109.6 57.908 109.888 57.74C110.184 57.564 110.392 57.316 110.512 56.996V56.252H108.964C108.1 56.252 107.668 56.536 107.668 57.104C107.668 57.376 107.776 57.592 107.992 57.752C108.208 57.912 108.508 57.992 108.892 57.992ZM120.272 50.096V59H118.832V58.172C118.584 58.476 118.276 58.704 117.908 58.856C117.548 59.008 117.148 59.084 116.708 59.084C116.092 59.084 115.536 58.948 115.04 58.676C114.552 58.404 114.168 58.02 113.888 57.524C113.608 57.02 113.468 56.444 113.468 55.796C113.468 55.148 113.608 54.576 113.888 54.08C114.168 53.584 114.552 53.2 115.04 52.928C115.536 52.656 116.092 52.52 116.708 52.52C117.132 52.52 117.52 52.592 117.872 52.736C118.224 52.88 118.524 53.096 118.772 53.384V50.096H120.272ZM116.888 57.8C117.248 57.8 117.572 57.72 117.86 57.56C118.148 57.392 118.376 57.156 118.544 56.852C118.712 56.548 118.796 56.196 118.796 55.796C118.796 55.396 118.712 55.044 118.544 54.74C118.376 54.436 118.148 54.204 117.86 54.044C117.572 53.876 117.248 53.792 116.888 53.792C116.528 53.792 116.204 53.876 115.916 54.044C115.628 54.204 115.4 54.436 115.232 54.74C115.064 55.044 114.98 55.396 114.98 55.796C114.98 56.196 115.064 56.548 115.232 56.852C115.4 57.156 115.628 57.392 115.916 57.56C116.204 57.72 116.528 57.8 116.888 57.8ZM122.234 52.592H123.734V59H122.234V52.592ZM122.99 51.536C122.718 51.536 122.49 51.452 122.306 51.284C122.122 51.108 122.03 50.892 122.03 50.636C122.03 50.38 122.122 50.168 122.306 50C122.49 49.824 122.718 49.736 122.99 49.736C123.262 49.736 123.49 49.82 123.674 49.988C123.858 50.148 123.95 50.352 123.95 50.6C123.95 50.864 123.858 51.088 123.674 51.272C123.498 51.448 123.27 51.536 122.99 51.536ZM129.339 52.52C130.147 52.52 130.795 52.756 131.283 53.228C131.771 53.7 132.015 54.4 132.015 55.328V59H130.515V55.52C130.515 54.96 130.383 54.54 130.119 54.26C129.855 53.972 129.479 53.828 128.991 53.828C128.439 53.828 128.003 53.996 127.683 54.332C127.363 54.66 127.203 55.136 127.203 55.76V59H125.703V52.592H127.131V53.42C127.379 53.124 127.691 52.9 128.067 52.748C128.443 52.596 128.867 52.52 129.339 52.52ZM140.336 52.592V58.028C140.336 60.284 139.184 61.412 136.88 61.412C136.264 61.412 135.68 61.332 135.128 61.172C134.576 61.02 134.12 60.796 133.76 60.5L134.432 59.372C134.712 59.604 135.064 59.788 135.488 59.924C135.92 60.068 136.356 60.14 136.796 60.14C137.5 60.14 138.016 59.98 138.344 59.66C138.672 59.34 138.836 58.852 138.836 58.196V57.86C138.58 58.14 138.268 58.352 137.9 58.496C137.532 58.64 137.128 58.712 136.688 58.712C136.08 58.712 135.528 58.584 135.032 58.328C134.544 58.064 134.156 57.696 133.868 57.224C133.588 56.752 133.448 56.212 133.448 55.604C133.448 54.996 133.588 54.46 133.868 53.996C134.156 53.524 134.544 53.16 135.032 52.904C135.528 52.648 136.08 52.52 136.688 52.52C137.152 52.52 137.572 52.596 137.948 52.748C138.332 52.9 138.652 53.132 138.908 53.444V52.592H140.336ZM136.916 57.44C137.484 57.44 137.948 57.272 138.308 56.936C138.676 56.592 138.86 56.148 138.86 55.604C138.86 55.068 138.676 54.632 138.308 54.296C137.948 53.96 137.484 53.792 136.916 53.792C136.34 53.792 135.868 53.96 135.5 54.296C135.14 54.632 134.96 55.068 134.96 55.604C134.96 56.148 135.14 56.592 135.5 56.936C135.868 57.272 136.34 57.44 136.916 57.44ZM149.381 59.12C148.221 59.12 147.317 58.796 146.669 58.148C146.021 57.492 145.697 56.556 145.697 55.34V50.6H147.257V55.28C147.257 56.928 147.969 57.752 149.393 57.752C150.809 57.752 151.517 56.928 151.517 55.28V50.6H153.053V55.34C153.053 56.556 152.729 57.492 152.081 58.148C151.441 58.796 150.541 59.12 149.381 59.12ZM158.729 52.52C159.537 52.52 160.185 52.756 160.673 53.228C161.161 53.7 161.405 54.4 161.405 55.328V59H159.905V55.52C159.905 54.96 159.773 54.54 159.509 54.26C159.245 53.972 158.869 53.828 158.381 53.828C157.829 53.828 157.393 53.996 157.073 54.332C156.753 54.66 156.593 55.136 156.593 55.76V59H155.093V52.592H156.521V53.42C156.769 53.124 157.081 52.9 157.457 52.748C157.833 52.596 158.257 52.52 158.729 52.52ZM163.308 52.592H164.808V59H163.308V52.592ZM164.064 51.536C163.792 51.536 163.564 51.452 163.38 51.284C163.196 51.108 163.104 50.892 163.104 50.636C163.104 50.38 163.196 50.168 163.38 50C163.564 49.824 163.792 49.736 164.064 49.736C164.336 49.736 164.564 49.82 164.748 49.988C164.932 50.148 165.024 50.352 165.024 50.6C165.024 50.864 164.932 51.088 164.748 51.272C164.572 51.448 164.344 51.536 164.064 51.536ZM172.777 52.592L170.029 59H168.481L165.733 52.592H167.293L169.285 57.344L171.337 52.592H172.777ZM179.563 55.832C179.563 55.936 179.555 56.084 179.539 56.276H174.511C174.599 56.748 174.827 57.124 175.195 57.404C175.571 57.676 176.035 57.812 176.587 57.812C177.291 57.812 177.871 57.58 178.327 57.116L179.131 58.04C178.843 58.384 178.479 58.644 178.039 58.82C177.599 58.996 177.103 59.084 176.551 59.084C175.847 59.084 175.227 58.944 174.691 58.664C174.155 58.384 173.739 57.996 173.443 57.5C173.155 56.996 173.011 56.428 173.011 55.796C173.011 55.172 173.151 54.612 173.431 54.116C173.719 53.612 174.115 53.22 174.619 52.94C175.123 52.66 175.691 52.52 176.323 52.52C176.947 52.52 177.503 52.66 177.991 52.94C178.487 53.212 178.871 53.6 179.143 54.104C179.423 54.6 179.563 55.176 179.563 55.832ZM176.323 53.72C175.843 53.72 175.435 53.864 175.099 54.152C174.771 54.432 174.571 54.808 174.499 55.28H178.135C178.071 54.816 177.875 54.44 177.547 54.152C177.219 53.864 176.811 53.72 176.323 53.72ZM182.432 53.528C182.864 52.856 183.624 52.52 184.712 52.52V53.948C184.584 53.924 184.468 53.912 184.364 53.912C183.78 53.912 183.324 54.084 182.996 54.428C182.668 54.764 182.504 55.252 182.504 55.892V59H181.004V52.592H182.432V53.528ZM187.987 59.084C187.467 59.084 186.959 59.016 186.463 58.88C185.967 58.744 185.571 58.572 185.275 58.364L185.851 57.224C186.139 57.416 186.483 57.572 186.883 57.692C187.291 57.804 187.691 57.86 188.083 57.86C188.979 57.86 189.427 57.624 189.427 57.152C189.427 56.928 189.311 56.772 189.079 56.684C188.855 56.596 188.491 56.512 187.987 56.432C187.459 56.352 187.027 56.26 186.691 56.156C186.363 56.052 186.075 55.872 185.827 55.616C185.587 55.352 185.467 54.988 185.467 54.524C185.467 53.916 185.719 53.432 186.223 53.072C186.735 52.704 187.423 52.52 188.287 52.52C188.727 52.52 189.167 52.572 189.607 52.676C190.047 52.772 190.407 52.904 190.687 53.072L190.111 54.212C189.567 53.892 188.955 53.732 188.275 53.732C187.835 53.732 187.499 53.8 187.267 53.936C187.043 54.064 186.931 54.236 186.931 54.452C186.931 54.692 187.051 54.864 187.291 54.968C187.539 55.064 187.919 55.156 188.431 55.244C188.943 55.324 189.363 55.416 189.691 55.52C190.019 55.624 190.299 55.8 190.531 56.048C190.771 56.296 190.891 56.648 190.891 57.104C190.891 57.704 190.631 58.184 190.111 58.544C189.591 58.904 188.883 59.084 187.987 59.084ZM192.183 52.592H193.683V59H192.183V52.592ZM192.939 51.536C192.667 51.536 192.439 51.452 192.255 51.284C192.071 51.108 191.979 50.892 191.979 50.636C191.979 50.38 192.071 50.168 192.255 50C192.439 49.824 192.667 49.736 192.939 49.736C193.211 49.736 193.439 49.82 193.623 49.988C193.807 50.148 193.899 50.352 193.899 50.6C193.899 50.864 193.807 51.088 193.623 51.272C193.447 51.448 193.219 51.536 192.939 51.536ZM199.504 58.652C199.328 58.796 199.112 58.904 198.856 58.976C198.608 59.048 198.344 59.084 198.064 59.084C197.36 59.084 196.816 58.9 196.432 58.532C196.048 58.164 195.856 57.628 195.856 56.924V53.84H194.8V52.64H195.856V51.176H197.356V52.64H199.072V53.84H197.356V56.888C197.356 57.2 197.432 57.44 197.584 57.608C197.736 57.768 197.956 57.848 198.244 57.848C198.58 57.848 198.86 57.76 199.084 57.584L199.504 58.652ZM200.738 52.592H202.238V59H200.738V52.592ZM201.494 51.536C201.222 51.536 200.994 51.452 200.81 51.284C200.626 51.108 200.534 50.892 200.534 50.636C200.534 50.38 200.626 50.168 200.81 50C200.994 49.824 201.222 49.736 201.494 49.736C201.766 49.736 201.994 49.82 202.178 49.988C202.362 50.148 202.454 50.352 202.454 50.6C202.454 50.864 202.362 51.088 202.178 51.272C202.002 51.448 201.774 51.536 201.494 51.536ZM210.231 55.832C210.231 55.936 210.223 56.084 210.207 56.276H205.179C205.267 56.748 205.495 57.124 205.863 57.404C206.239 57.676 206.703 57.812 207.255 57.812C207.959 57.812 208.539 57.58 208.995 57.116L209.799 58.04C209.511 58.384 209.147 58.644 208.707 58.82C208.267 58.996 207.771 59.084 207.219 59.084C206.515 59.084 205.895 58.944 205.359 58.664C204.823 58.384 204.407 57.996 204.111 57.5C203.823 56.996 203.679 56.428 203.679 55.796C203.679 55.172 203.819 54.612 204.099 54.116C204.387 53.612 204.783 53.22 205.287 52.94C205.791 52.66 206.359 52.52 206.991 52.52C207.615 52.52 208.171 52.66 208.659 52.94C209.155 53.212 209.539 53.6 209.811 54.104C210.091 54.6 210.231 55.176 210.231 55.832ZM206.991 53.72C206.511 53.72 206.103 53.864 205.767 54.152C205.439 54.432 205.239 54.808 205.167 55.28H208.803C208.739 54.816 208.543 54.44 208.215 54.152C207.887 53.864 207.479 53.72 206.991 53.72ZM213.652 59.084C213.132 59.084 212.624 59.016 212.128 58.88C211.632 58.744 211.236 58.572 210.94 58.364L211.516 57.224C211.804 57.416 212.148 57.572 212.548 57.692C212.956 57.804 213.356 57.86 213.748 57.86C214.644 57.86 215.092 57.624 215.092 57.152C215.092 56.928 214.976 56.772 214.744 56.684C214.52 56.596 214.156 56.512 213.652 56.432C213.124 56.352 212.692 56.26 212.356 56.156C212.028 56.052 211.74 55.872 211.492 55.616C211.252 55.352 211.132 54.988 211.132 54.524C211.132 53.916 211.384 53.432 211.888 53.072C212.4 52.704 213.088 52.52 213.952 52.52C214.392 52.52 214.832 52.572 215.272 52.676C215.712 52.772 216.072 52.904 216.352 53.072L215.776 54.212C215.232 53.892 214.62 53.732 213.94 53.732C213.5 53.732 213.164 53.8 212.932 53.936C212.708 54.064 212.596 54.236 212.596 54.452C212.596 54.692 212.716 54.864 212.956 54.968C213.204 55.064 213.584 55.156 214.096 55.244C214.608 55.324 215.028 55.416 215.356 55.52C215.684 55.624 215.964 55.8 216.196 56.048C216.436 56.296 216.556 56.648 216.556 57.104C216.556 57.704 216.296 58.184 215.776 58.544C215.256 58.904 214.548 59.084 213.652 59.084Z" fill="#858E97"/>
</svg>
