<?xml version="1.0" encoding="utf-8"?>
<!-- Svg Vector Icons : http://www.onlinewebfonts.com/icon -->
<!DOCTYPE svg PUBLIC "-//W3C//DTD SVG 1.1//EN" "http://www.w3.org/Graphics/SVG/1.1/DTD/svg11.dtd">
<svg version="1.1" xmlns="http://www.w3.org/2000/svg" xmlns:xlink="http://www.w3.org/1999/xlink" x="0px" y="0px" viewBox="0 0 1000 1000" enable-background="new 0 0 1000 1000" xml:space="preserve">
<metadata> Svg Vector Icons : http://www.onlinewebfonts.com/icon </metadata>
<g><g transform="matrix(1 0 0 -1 0 480)"><path d="M227.4-2.7l108.9,0V-510h216.8V-2.7h143.8l36.2,147h-180v81.2c0,37.3,6.8,62.5,20.3,75.6c13.6,13.1,40.5,23.1,71.7,23.1c31.7,0,57.2-16.9,89.2-35.6l38.2,144.4C713.7,449.7,665.7,470,604.3,470c-59.9,0-109.4-9.6-148.5-28.7c-39.1-19.1-83-52.9-97.6-83.3c-14.6-30.4-21.9-67.4-21.9-129.1v-84.7l-108.9,0V-2.7L227.4-2.7z"/></g></g>
</svg>