<svg width="20" height="17" viewBox="0 0 20 17" fill="none" xmlns="http://www.w3.org/2000/svg">
<path d="M2 1.82552H5L7 0H13L15 1.82552H18C18.5304 1.82552 19.0391 2.01785 19.4142 2.3602C19.7893 2.70255 20 3.16688 20 3.65104V14.6042C20 15.0883 19.7893 15.5527 19.4142 15.895C19.0391 16.2374 18.5304 16.4297 18 16.4297H2C1.46957 16.4297 0.960859 16.2374 0.585786 15.895C0.210714 15.5527 0 15.0883 0 14.6042V3.65104C0 3.16688 0.210714 2.70255 0.585786 2.3602C0.960859 2.01785 1.46957 1.82552 2 1.82552ZM10 4.5638C8.67392 4.5638 7.40215 5.04463 6.46447 5.90051C5.52678 6.75639 5 7.91721 5 9.1276C5 10.338 5.52678 11.4988 6.46447 12.3547C7.40215 13.2106 8.67392 13.6914 10 13.6914C11.3261 13.6914 12.5979 13.2106 13.5355 12.3547C14.4732 11.4988 15 10.338 15 9.1276C15 7.91721 14.4732 6.75639 13.5355 5.90051C12.5979 5.04463 11.3261 4.5638 10 4.5638ZM10 6.38932C10.7956 6.38932 11.5587 6.67782 12.1213 7.19135C12.6839 7.70487 13 8.40137 13 9.1276C13 9.85384 12.6839 10.5503 12.1213 11.0639C11.5587 11.5774 10.7956 11.8659 10 11.8659C9.20435 11.8659 8.44129 11.5774 7.87868 11.0639C7.31607 10.5503 7 9.85384 7 9.1276C7 8.40137 7.31607 7.70487 7.87868 7.19135C8.44129 6.67782 9.20435 6.38932 10 6.38932Z" fill="black"/>
</svg>
