<svg width="35" height="36" viewBox="0 0 35 36" fill="none" xmlns="http://www.w3.org/2000/svg">
<path d="M34.9985 17.9601C34.9985 8.04014 27.164 0 17.4993 0C7.83449 0 0 8.04014 0 17.9601C0 26.9222 6.39943 34.3517 14.7648 35.6987V23.1506H10.3225V17.9586H14.7648V14.0029C14.7648 9.50089 17.3782 7.01492 21.3742 7.01492C23.2891 7.01492 25.2915 7.36514 25.2915 7.36514V11.7848H23.0864C20.9134 11.7848 20.2352 13.1692 20.2352 14.5896V17.9601H25.0888L24.3129 23.1521H20.2352V35.7002C28.6006 34.3532 35 26.9237 35 17.9601H34.9985Z" fill="#3C5A98"/>
</svg>
