<svg width="20" height="19" viewBox="0 0 20 19" fill="none" xmlns="http://www.w3.org/2000/svg">
<path d="M8 13.2351V5.02023L14 9.12769L8 13.2351ZM10 0C8.68678 0 7.38642 0.236095 6.17317 0.694804C4.95991 1.15351 3.85752 1.82585 2.92893 2.67344C1.05357 4.38521 0 6.70687 0 9.12769C0 11.5485 1.05357 13.8702 2.92893 15.5819C3.85752 16.4295 4.95991 17.1019 6.17317 17.5606C7.38642 18.0193 8.68678 18.2554 10 18.2554C12.6522 18.2554 15.1957 17.2937 17.0711 15.5819C18.9464 13.8702 20 11.5485 20 9.12769C20 7.92902 19.7413 6.74209 19.2388 5.63467C18.7362 4.52725 17.9997 3.52102 17.0711 2.67344C16.1425 1.82585 15.0401 1.15351 13.8268 0.694804C12.6136 0.236095 11.3132 0 10 0Z" fill="white"/>
</svg>
