<svg width="16" height="16" viewBox="0 0 16 16" fill="none" xmlns="http://www.w3.org/2000/svg">
<path d="M1.77778 0H14.2222C14.6937 0 15.1459 0.187301 15.4793 0.520699C15.8127 0.854097 16 1.30628 16 1.77778V14.2222C16 14.6937 15.8127 15.1459 15.4793 15.4793C15.1459 15.8127 14.6937 16 14.2222 16H1.77778C1.30628 16 0.854097 15.8127 0.520699 15.4793C0.187301 15.1459 0 14.6937 0 14.2222V1.77778C0 1.30628 0.187301 0.854097 0.520699 0.520699C0.854097 0.187301 1.30628 0 1.77778 0ZM4 10.6667C3.64638 10.6667 3.30724 10.8071 3.05719 11.0572C2.80714 11.3072 2.66667 11.6464 2.66667 12C2.66667 12.3536 2.80714 12.6928 3.05719 12.9428C3.30724 13.1929 3.64638 13.3333 4 13.3333C4.35362 13.3333 4.69276 13.1929 4.94281 12.9428C5.19286 12.6928 5.33333 12.3536 5.33333 12C5.33333 11.6464 5.19286 11.3072 4.94281 11.0572C4.69276 10.8071 4.35362 10.6667 4 10.6667ZM2.66667 6.22222V8C4.08115 8 5.43771 8.5619 6.4379 9.5621C7.4381 10.5623 8 11.9188 8 13.3333H9.77778C9.77778 11.4473 9.02857 9.63861 7.69498 8.30502C6.36139 6.97143 4.55265 6.22222 2.66667 6.22222ZM2.66667 2.66667V4.44444C5.02415 4.44444 7.28507 5.38095 8.95206 7.04794C10.6191 8.71493 11.5556 10.9759 11.5556 13.3333H13.3333C13.3333 10.5044 12.2095 7.79125 10.2091 5.79086C8.20875 3.79047 5.49564 2.66667 2.66667 2.66667Z" fill="#858E97"/>
</svg>
