<svg width="35" height="36" viewBox="0 0 35 36" fill="none" xmlns="http://www.w3.org/2000/svg">
<path d="M17.5 0C7.83494 0 0 7.99168 0 17.8501C0 27.7085 7.83494 35.7002 17.5 35.7002C27.1651 35.7002 35 27.7085 35 17.8501C35 7.99168 27.1651 0 17.5 0Z" fill="#2D9CDB"/>
<path d="M26 9.83004L22.8367 26.7757C22.8367 26.7757 22.3944 27.9509 21.1778 27.3868L13.8783 21.4406L11.224 20.0775L6.75585 18.4792C6.75585 18.4792 6.07015 18.2208 6.00374 17.6567C5.93733 17.0926 6.77799 16.7871 6.77799 16.7871L24.5399 9.38372C24.5399 9.38372 25.9999 8.70218 25.9999 9.83034" fill="white"/>
<path d="M13.2146 26.52C13.2146 26.52 12.9892 26.4999 12.7082 25.6492C12.4276 24.7987 11 20.3224 11 20.3224L22.3494 13.4289C22.3494 13.4289 23.0047 13.0484 22.9813 13.4289C22.9813 13.4289 23.0983 13.4961 22.7471 13.8094C22.3963 14.1229 13.8316 21.4864 13.8316 21.4864" fill="#D2E5F1"/>
</svg>
