<svg width="270" height="123" viewBox="0 0 270 123" fill="none" xmlns="http://www.w3.org/2000/svg">
<path d="M30 64.9123V30.4723H47.1V66.0232C47.1 71.3202 50.6 76.756 57.52 76.756C64.36 76.756 67.86 71.3202 67.86 66.0232V30.4723H84.95V64.8329C84.95 78.5613 76.28 92.0615 57.52 92.0615C38.76 92.0615 30 78.5613 30 64.9123Z" fill="#0072BC"/>
<path d="M101.73 9.6317H93.3401L87.7601 11.1593V13.1432H69.4801V11.0502L63.8801 8.89767H59.3401L58.3901 8.38186C58.4201 8.28267 58.4501 8.19339 58.4501 8.08428C58.4501 7.68751 58.2001 7.35025 57.8501 7.21138V3.90823H57.1501V7.21138C56.8001 7.35025 56.5501 7.68751 56.5501 8.08428C56.5501 8.18347 56.5801 8.28267 56.6101 8.37194L55.6501 8.88775H50.9001L45.5701 11.1196V13.1332H27.1701V11.1593L21.6001 9.6317H13.2001L7.62012 11.1593V19.0948V68.1162C7.62012 95.1266 29.7801 117.108 57.0101 117.108H57.9301C85.1601 117.108 107.32 95.1266 107.32 68.1162V14.1648H107.3V11.1692L101.73 9.6317ZM100.2 68.1162C100.2 91.2382 81.2401 110.045 57.9301 110.045H57.0101C33.7001 110.045 14.7401 91.2382 14.7401 68.1162V19.8784H100.2V68.1162Z" fill="#0072BC"/>
<path d="M119.69 50.43H130.59V52.5825H126.3V63.5434H123.98V52.5825H119.69V50.43Z" fill="black"/>
<path d="M133.61 54.9036C136.42 54.9036 138.24 56.7982 138.24 59.3276C138.24 61.8571 136.43 63.7517 133.61 63.7517C130.79 63.7517 128.98 61.8571 128.98 59.3276C128.98 56.7982 130.8 54.9036 133.61 54.9036ZM133.61 61.748C134.95 61.748 135.93 60.7957 135.93 59.3276C135.93 57.8993 134.93 56.9272 133.61 56.9272C132.32 56.9272 131.31 57.8596 131.31 59.3276C131.31 60.7362 132.29 61.748 133.61 61.748Z" fill="black"/>
<path d="M140.13 55.1119H142.09L144.98 58.6333L147.72 55.1119H149.63V63.5434H147.46V58.3952L144.95 61.5397H144.89L142.3 58.3952V63.5434H140.13V55.1119Z" fill="black"/>
<path d="M159.51 62.2935C158.79 63.2458 157.51 63.7517 156.13 63.7517C153.37 63.7517 151.52 61.986 151.52 59.3276C151.52 56.8776 153.33 54.9036 155.92 54.9036C157.32 54.9036 158.55 55.2607 159.34 56.0443L158.32 57.7505C157.68 57.1355 156.98 56.9272 156.2 56.9272C154.99 56.9272 153.84 57.8497 153.84 59.3276C153.84 60.8255 155.01 61.748 156.3 61.748C157.23 61.748 157.94 61.3214 158.49 60.7164L159.51 62.2935Z" fill="black"/>
<path d="M161.25 55.1119H163.42V63.5434H161.25V55.1119ZM166.03 59.1193L169.7 63.5434H166.87L163.51 59.288L166.57 55.1119H169.31L166.03 59.1193Z" fill="black"/>
<path d="M170.98 63.5434V55.1119H173.15V60.4485L177.12 55.1119H179.29V63.5434H177.12V58.2068L173.15 63.5434H170.98Z" fill="black"/>
<path d="M181.71 63.5434V55.1119H183.88V60.4485L187.85 55.1119H190.02V63.5434H187.85V58.2068L183.88 63.5434H181.71ZM184.96 50.8962C184.96 51.5906 185.22 52.2651 185.94 52.2651C186.58 52.2651 186.85 51.5906 186.85 50.8962H188.83C188.83 52.5031 187.85 53.8026 185.94 53.8026C183.82 53.8026 182.97 52.5329 182.97 50.8962H184.96Z" fill="black"/>
<path d="M120.71 73.9686H126.42V75.9922H122.89V82.4001H120.72V73.9686H120.71Z" fill="black"/>
<path d="M131.63 73.7603C134.44 73.7603 136.26 75.6549 136.26 78.1844C136.26 80.7138 134.45 82.6084 131.63 82.6084C128.81 82.6084 127 80.7138 127 78.1844C127 75.6549 128.81 73.7603 131.63 73.7603ZM131.63 80.6047C132.97 80.6047 133.95 79.6524 133.95 78.1844C133.95 76.756 132.95 75.7839 131.63 75.7839C130.34 75.7839 129.33 76.7163 129.33 78.1844C129.32 79.5929 130.31 80.6047 131.63 80.6047Z" fill="black"/>
<path d="M145.61 81.1403C144.89 82.0926 143.61 82.5985 142.23 82.5985C139.47 82.5985 137.62 80.8328 137.62 78.1744C137.62 75.7244 139.43 73.7504 142.02 73.7504C143.42 73.7504 144.65 74.1075 145.44 74.8911L144.42 76.5973C143.78 75.9823 143.08 75.774 142.3 75.774C141.09 75.774 139.94 76.6965 139.94 78.1744C139.94 79.6723 141.11 80.5948 142.4 80.5948C143.33 80.5948 144.04 80.1682 144.59 79.5632L145.61 81.1403Z" fill="black"/>
<path d="M151.94 82.4001C150.69 85.4156 149.9 86.1496 148.65 86.1496C147.87 86.1496 147.31 85.852 146.82 85.4949L147.52 83.8682C147.75 83.9971 148.07 84.1657 148.41 84.1657C148.96 84.1657 149.35 83.7392 149.71 82.8564L149.9 82.41L145.97 73.9786H148.58L150.56 78.5911C150.73 79.0077 150.84 79.3945 150.98 79.8111C151.06 79.4144 151.13 79.0077 151.28 78.5712L152.81 73.9786H155.28L151.94 82.4001Z" fill="black"/>
<path d="M154.87 80.3964H155.95C156.55 79.6127 157.03 77.9066 157.14 75.9922L157.27 73.9686H163.54V80.3964H164.96V84.3641H162.92V82.4001H156.89V84.3641H154.87V80.3964ZM158.21 80.3964H161.37V75.9922H159.29L159.23 76.8552C159.06 78.6307 158.59 79.8706 158.21 80.3964Z" fill="black"/>
<path d="M166.5 74.5638C167.24 74.1373 168.39 73.7603 169.5 73.7603C172.01 73.7603 172.9 75.03 172.9 77.2619V82.4001H171.01V81.428C170.56 82.0628 169.65 82.5191 168.5 82.5191C166.95 82.5191 165.84 81.5669 165.84 79.9302C165.84 78.0753 167.22 77.1924 168.94 77.1924C169.7 77.1924 170.45 77.4404 170.87 77.738C170.93 76.3295 170.55 75.5657 169.28 75.5657C168.3 75.5657 167.67 75.8632 167.05 76.1509L166.5 74.5638ZM170.87 79.9302V79.0672C170.49 78.7894 170 78.6506 169.38 78.6506C168.66 78.6506 168.02 78.9878 168.02 79.702C168.02 80.3369 168.55 80.694 169.23 80.694C170.13 80.694 170.6 80.2972 170.87 79.9302Z" fill="black"/>
<path d="M175.14 73.9686H177.31V74.7721C177.84 74.2067 178.84 73.7603 179.94 73.7603C182.28 73.7603 183.79 75.5557 183.79 78.0554C183.79 80.6245 182.01 82.6084 179.29 82.6084C178.53 82.6084 177.8 82.4794 177.31 82.1918V86.1496H175.14V73.9686ZM177.31 76.7064V80.1186C177.9 80.4956 178.39 80.6047 179.1 80.6047C180.61 80.6047 181.48 79.5136 181.48 78.1149C181.48 76.7659 180.69 75.7938 179.25 75.7938C178.52 75.7839 177.84 76.1211 177.31 76.7064Z" fill="black"/>
<path d="M193.14 81.1403C192.42 82.0926 191.14 82.5985 189.76 82.5985C187 82.5985 185.15 80.8328 185.15 78.1744C185.15 75.7244 186.96 73.7504 189.55 73.7504C190.95 73.7504 192.18 74.1075 192.97 74.8911L191.95 76.5973C191.31 75.9823 190.61 75.774 189.83 75.774C188.62 75.774 187.47 76.6965 187.47 78.1744C187.47 79.6723 188.64 80.5948 189.93 80.5948C190.86 80.5948 191.57 80.1682 192.12 79.5632L193.14 81.1403Z" fill="black"/>
<path d="M193.82 73.9686H201.57V76.1211H198.79V82.4001H196.62V76.1211H193.82V73.9686Z" fill="black"/>
<path d="M203.12 73.9686C203.86 73.9488 205.14 73.8794 206.46 73.8794C208.93 73.8794 210.31 74.5539 210.31 76.0914C210.31 77.1031 209.57 77.8372 208.72 77.9661V78.0058C209.91 78.2836 210.53 78.9779 210.53 79.95C210.53 81.6165 209.23 82.4993 206.49 82.4993C205.43 82.4993 203.88 82.41 203.11 82.41V73.9686H203.12ZM205.29 75.6549V77.5098H206.71C207.43 77.5098 208.01 77.1924 208.01 76.5377C208.01 75.9227 207.46 75.6152 206.65 75.6152C206.14 75.6152 205.52 75.6351 205.29 75.6549ZM205.29 78.8192V80.694C205.61 80.7138 206.2 80.7733 206.73 80.7733C207.69 80.7733 208.26 80.3765 208.26 79.8012C208.26 79.1664 207.68 78.8291 206.65 78.8291H205.29V78.8192Z" fill="black"/>
<path d="M219.9 81.5569C219.05 82.2711 217.84 82.6084 216.65 82.6084C213.91 82.6084 212.08 80.8428 212.08 78.1844C212.08 75.7343 213.78 73.7603 216.58 73.7603C218.77 73.7603 220.6 75.3177 220.6 77.6785C220.6 78.2042 220.56 78.5216 220.47 78.839H214.33C214.52 80.1087 215.54 80.8031 216.88 80.8031C217.92 80.8031 218.79 80.4261 219.28 80.0393L219.9 81.5569ZM214.25 77.4007H218.42C218.44 76.3691 217.72 75.5657 216.47 75.5657C215.17 75.5557 214.47 76.2898 214.25 77.4007Z" fill="black"/>
<path d="M228.25 79.1763H224.53V82.4001H222.36V73.9686H224.53V77.1527H228.25V73.9686H230.42V82.4001H228.25V79.1763Z" fill="black"/>
<path d="M238.73 79.1763H235.01V82.4001H232.84V73.9686H235.01V77.1527H238.73V73.9686H240.9V82.4001H238.73V79.1763Z" fill="black"/>
<path d="M243.32 73.9686H245.49V76.2699H246.55C249.44 76.2699 250.29 77.6983 250.29 79.1961C250.29 80.813 249.27 82.4001 246.38 82.4001H243.32V73.9686ZM245.5 77.9959V80.5253H246.35C247.52 80.5253 247.99 80.0393 247.99 79.2656C247.99 78.5018 247.54 77.9959 246.36 77.9959H245.5ZM251.5 73.9686H253.67V82.4001H251.5V73.9686Z" fill="black"/>
<path d="M256.1 82.4001V73.9686H258.27V79.3053L262.24 73.9686H264.41V82.4001H262.24V77.0635L258.27 82.4001H256.1ZM259.34 69.7529C259.34 70.4473 259.6 71.1218 260.32 71.1218C260.96 71.1218 261.23 70.4473 261.23 69.7529H263.21C263.21 71.3599 262.23 72.6593 260.32 72.6593C258.2 72.6593 257.35 71.3896 257.35 69.7529H259.34Z" fill="black"/>
<path d="M125.56 101.257C124.31 104.272 123.52 105.006 122.27 105.006C121.5 105.006 120.93 104.709 120.44 104.352L121.14 102.725C121.37 102.854 121.69 103.022 122.03 103.022C122.58 103.022 122.97 102.596 123.33 101.713L123.52 101.267L119.59 92.8352H122.2L124.18 97.4477C124.35 97.8644 124.46 98.2512 124.6 98.6678C124.68 98.2711 124.75 97.8644 124.9 97.4279L126.43 92.8352H128.9L125.56 101.257Z" fill="black"/>
<path d="M136.1 98.033H132.38V101.257H130.21V92.8253H132.38V96.0094H136.1V92.8253H138.27V101.257H136.1V98.033Z" fill="black"/>
<path d="M140.7 101.257V92.8253H142.87V98.1619L146.84 92.8253H149.01V101.257H146.84V95.9202L142.87 101.257H140.7Z" fill="black"/>
<path d="M151.43 92.8154C152.17 92.7956 153.45 92.7261 154.77 92.7261C157.24 92.7261 158.62 93.4006 158.62 94.9381C158.62 95.9499 157.88 96.6839 157.03 96.8129V96.8526C158.22 97.1303 158.84 97.8247 158.84 98.7968C158.84 100.463 157.54 101.346 154.8 101.346C153.74 101.346 152.19 101.257 151.42 101.257V92.8154H151.43ZM153.6 94.5017V96.3566H155.02C155.74 96.3566 156.32 96.0392 156.32 95.3845C156.32 94.7695 155.77 94.462 154.96 94.462C154.45 94.4719 153.83 94.4918 153.6 94.5017ZM153.6 97.6759V99.5506C153.92 99.5705 154.51 99.63 155.04 99.63C156 99.63 156.57 99.2332 156.57 98.6579C156.57 98.0231 155.99 97.6858 154.96 97.6858H153.6V97.6759Z" fill="black"/>
<path d="M168.2 100.414C167.35 101.128 166.14 101.465 164.95 101.465C162.21 101.465 160.38 99.6994 160.38 97.0411C160.38 94.591 162.08 92.617 164.88 92.617C167.07 92.617 168.9 94.1744 168.9 96.5352C168.9 97.0609 168.86 97.3783 168.77 97.6957H162.63C162.82 98.9654 163.84 99.6598 165.18 99.6598C166.22 99.6598 167.09 99.2828 167.58 98.896L168.2 100.414ZM162.56 96.2475H166.73C166.75 95.2159 166.03 94.4124 164.78 94.4124C163.48 94.4124 162.78 95.1465 162.56 96.2475Z" fill="black"/>
<path d="M170.661 92.8154H172.831V93.6189C173.361 93.0535 174.361 92.6071 175.461 92.6071C177.801 92.6071 179.311 94.4025 179.311 96.9022C179.311 99.4713 177.531 101.455 174.811 101.455C174.051 101.455 173.321 101.326 172.831 101.039V104.996H170.661V92.8154ZM172.831 95.5531V98.9654C173.411 99.3423 173.911 99.4515 174.621 99.4515C176.131 99.4515 177.001 98.3603 177.001 96.9617C177.001 95.6127 176.211 94.6406 174.771 94.6406C174.041 94.6406 173.361 94.9778 172.831 95.5531Z" fill="black"/>
<path d="M188.67 99.997C187.95 100.949 186.67 101.455 185.29 101.455C182.53 101.455 180.68 99.6895 180.68 97.0311C180.68 94.581 182.49 92.6071 185.08 92.6071C186.48 92.6071 187.71 92.9642 188.5 93.7478L187.48 95.454C186.84 94.839 186.14 94.6306 185.36 94.6306C184.15 94.6306 183 95.5531 183 97.0311C183 98.529 184.17 99.4515 185.46 99.4515C186.39 99.4515 187.1 99.0249 187.65 98.4198L188.67 99.997Z" fill="black"/>
<path d="M190.4 101.257V92.8253H192.57V98.1619L196.54 92.8253H198.71V101.257H196.54V95.9202L192.57 101.257H190.4Z" fill="black"/>
<path d="M200.25 92.8154H208.001V94.9679H205.221V101.247H203.051V94.9679H200.25V92.8154Z" fill="black"/>
<path d="M216.57 100.414C215.72 101.128 214.51 101.465 213.32 101.465C210.58 101.465 208.75 99.6994 208.75 97.0411C208.75 94.591 210.45 92.617 213.25 92.617C215.44 92.617 217.27 94.1744 217.27 96.5352C217.27 97.0609 217.23 97.3783 217.14 97.6957H211C211.19 98.9654 212.21 99.6598 213.55 99.6598C214.59 99.6598 215.46 99.2828 215.95 98.896L216.57 100.414ZM210.92 96.2475H215.09C215.11 95.2159 214.39 94.4124 213.14 94.4124C211.85 94.4124 211.15 95.1465 210.92 96.2475Z" fill="black"/>
<path d="M218.061 92.8154H225.811V94.9679H223.031V101.247H220.861V94.9679H218.061V92.8154Z" fill="black"/>
<path d="M125.98 24.0247H121.89V27.3675H120.99V19.9875H121.89V23.1815H125.98V19.9875H126.88V27.3675H125.98V24.0247Z" fill="black"/>
<path d="M128.8 22.9534C129.23 22.6855 129.8 22.5169 130.4 22.5169C131.76 22.5169 132.24 23.2212 132.24 24.4611V27.3774H131.43V26.7624C131.14 27.1195 130.69 27.4468 129.9 27.4468C129.03 27.4468 128.43 26.9013 128.43 25.9788C128.43 25.0067 129.21 24.471 130.24 24.471C130.61 24.471 131.11 24.5405 131.43 24.7785C131.43 23.8957 131.29 23.2807 130.35 23.2807C129.77 23.2807 129.41 23.4295 129.03 23.6279L128.8 22.9534ZM131.42 26.068V25.463C131.12 25.2547 130.76 25.1455 130.35 25.1455C129.84 25.1455 129.33 25.3737 129.33 25.9292C129.33 26.3855 129.64 26.6731 130.19 26.6731C130.82 26.683 131.18 26.3557 131.42 26.068Z" fill="black"/>
<path d="M133.65 22.6161H134.5V26.5739H137.05V22.6161H137.9V26.5739H138.7V28.5281H137.9V27.3675H133.65V22.6161Z" fill="black"/>
<path d="M139.63 27.3675V22.6161H140.48V26.1474L143.25 22.6161H144.1V27.3675H143.25V23.8362L140.48 27.3675H139.63Z" fill="black"/>
<path d="M147.87 22.5169C149.4 22.5169 150.42 23.5684 150.42 24.9968C150.42 26.4251 149.4 27.4766 147.87 27.4766C146.34 27.4766 145.32 26.4251 145.32 24.9968C145.31 23.5684 146.34 22.5169 147.87 22.5169ZM147.87 26.683C148.83 26.683 149.52 26.0085 149.52 24.9968C149.52 24.0048 148.83 23.3105 147.87 23.3105C146.93 23.3105 146.22 23.9949 146.22 24.9968C146.22 25.9887 146.91 26.683 147.87 26.683Z" fill="black"/>
<path d="M155.15 25.3638H152.49V27.3675H151.64V22.6161H152.49V24.5702H155.15V22.6161H156V27.3675H155.15V25.3638Z" fill="black"/>
<path d="M157.57 22.9534C157.99 22.6855 158.57 22.5169 159.16 22.5169C160.52 22.5169 161 23.2212 161 24.4611V27.3774H160.19V26.7624C159.9 27.1195 159.44 27.4468 158.66 27.4468C157.79 27.4468 157.19 26.9013 157.19 25.9788C157.19 25.0067 157.97 24.471 159 24.471C159.37 24.471 159.87 24.5405 160.19 24.7785C160.19 23.8957 160.05 23.2807 159.11 23.2807C158.53 23.2807 158.17 23.4295 157.79 23.6279L157.57 22.9534ZM160.2 26.068V25.463C159.9 25.2547 159.54 25.1455 159.13 25.1455C158.62 25.1455 158.11 25.3737 158.11 25.9292C158.11 26.3855 158.42 26.6731 158.97 26.6731C159.59 26.683 159.95 26.3557 160.2 26.068Z" fill="black"/>
<path d="M165.7 23.4692H164.02L163.97 24.2727C163.76 26.9707 163.03 27.4369 162.05 27.4369L161.99 26.6136C162.35 26.6434 163.03 26.2962 163.15 24.104L163.23 22.626H166.56V27.3774H165.71V23.4692H165.7Z" fill="black"/>
<path d="M168.08 22.6161H168.93V24.0445H169.8C171.27 24.0445 171.69 24.8381 171.69 25.6812C171.69 26.5144 171.2 27.3675 169.69 27.3675H168.07V22.6161H168.08ZM168.93 24.8381V26.5739H169.63C170.47 26.5739 170.79 26.2664 170.79 25.711C170.79 25.1456 170.46 24.8381 169.64 24.8381H168.93Z" fill="black"/>
<path d="M176.34 25.3638H173.68V27.3675H172.83V22.6161H173.68V24.5702H176.34V22.6161H177.19V27.3675H176.34V25.3638Z" fill="black"/>
<path d="M178.73 22.6161H179.58V24.0445H180.37C181.84 24.0445 182.26 24.8381 182.26 25.6812C182.26 26.5144 181.77 27.3675 180.27 27.3675H178.73V22.6161ZM179.58 24.8381V26.5739H180.2C181.05 26.5739 181.36 26.2664 181.36 25.711C181.36 25.1456 181.03 24.8381 180.21 24.8381H179.58ZM183.18 22.6161H184.03V27.3675H183.18V22.6161Z" fill="black"/>
<path d="M185.55 27.3675V22.6161H186.4V26.1474L189.17 22.6161H190.02V27.3675H189.17V23.8362L186.4 27.3675H185.55ZM187.03 20.1958C187.07 20.7612 187.34 21.029 187.85 21.029C188.32 21.029 188.58 20.7612 188.63 20.1958H189.43C189.43 21.029 188.81 21.6738 187.86 21.6738C186.81 21.6738 186.24 21.029 186.24 20.1958H187.03Z" fill="black"/>
<path d="M120.63 40.0246V35.2732H121.48V38.8045L124.25 35.2732H125.1V40.0246H124.25V36.4933L121.48 40.0246H120.63Z" fill="black"/>
<path d="M130.72 39.3302C130.32 39.846 129.61 40.1238 128.88 40.1238C127.36 40.1238 126.32 39.1418 126.32 37.6439C126.32 36.2652 127.34 35.1641 128.74 35.1641C129.51 35.1641 130.18 35.3427 130.62 35.789L130.23 36.4536C129.83 36.0866 129.36 35.9577 128.86 35.9577C128 35.9577 127.22 36.6421 127.22 37.6439C127.22 38.6855 128 39.3302 128.94 39.3302C129.51 39.3302 129.99 39.0723 130.31 38.7152L130.72 39.3302Z" fill="black"/>
<path d="M135.67 39.3302C135.27 39.846 134.56 40.1238 133.83 40.1238C132.31 40.1238 131.27 39.1418 131.27 37.6439C131.27 36.2652 132.29 35.1641 133.69 35.1641C134.46 35.1641 135.13 35.3427 135.57 35.789L135.18 36.4536C134.78 36.0866 134.31 35.9577 133.81 35.9577C132.95 35.9577 132.17 36.6421 132.17 37.6439C132.17 38.6855 132.95 39.3302 133.89 39.3302C134.46 39.3302 134.94 39.0723 135.26 38.7152L135.67 39.3302Z" fill="black"/>
<path d="M139.96 36.1164H138.28L138.23 36.9199C138.02 39.6179 137.29 40.0841 136.31 40.0841L136.25 39.2608C136.61 39.2906 137.29 38.9434 137.41 36.7512L137.49 35.2732H140.82V40.0246H139.97V36.1164H139.96Z" fill="black"/>
<path d="M146.38 39.4989C145.91 39.9254 145.22 40.1238 144.58 40.1238C143.03 40.1238 142.02 39.1418 142.02 37.6439C142.02 36.2652 142.91 35.1641 144.49 35.1641C145.72 35.1641 146.71 36.0271 146.71 37.3364C146.71 37.5646 146.69 37.763 146.66 37.9019H142.98C143.05 38.7946 143.71 39.3302 144.65 39.3302C145.27 39.3302 145.81 39.1219 146.12 38.8343L146.38 39.4989ZM142.92 37.2273H145.82C145.78 36.4437 145.27 35.9577 144.44 35.9577C143.57 35.9577 143.02 36.4933 142.92 37.2273Z" fill="black"/>
<path d="M147.02 39.2311H147.62C147.94 38.8343 148.27 37.8324 148.35 36.533L148.42 35.2732H151.69V39.2311H152.49V41.1852H151.69V40.0246H147.82V41.1852H147.02V39.2311ZM148.52 39.2311H150.84V36.0668H149.22L149.17 36.8603C149.07 38.0705 148.75 38.9335 148.52 39.2311Z" fill="black"/>
<path d="M155.65 35.1641C157.18 35.1641 158.2 36.2156 158.2 37.6439C158.2 39.0723 157.18 40.1238 155.65 40.1238C154.12 40.1238 153.1 39.0723 153.1 37.6439C153.09 36.2255 154.11 35.1641 155.65 35.1641ZM155.65 39.3302C156.61 39.3302 157.3 38.6557 157.3 37.6439C157.3 36.652 156.61 35.9577 155.65 35.9577C154.71 35.9577 154 36.6421 154 37.6439C154 38.6359 154.69 39.3302 155.65 39.3302Z" fill="black"/>
<path d="M159.42 35.2732C159.83 35.2732 160.46 35.2336 161.15 35.2336C162.49 35.2336 163.21 35.6006 163.21 36.4536C163.21 37.0091 162.83 37.4555 162.25 37.5448V37.5646C163.02 37.7035 163.37 38.0903 163.37 38.6855C163.37 39.5782 162.66 40.0643 161.17 40.0643C160.57 40.0643 159.85 40.0246 159.42 40.0246V35.2732ZM160.27 35.9477V37.3662H161.34C161.9 37.3662 162.31 37.0885 162.31 36.6322C162.31 36.1164 161.83 35.9279 161.22 35.9279C160.83 35.918 160.48 35.9378 160.27 35.9477ZM160.27 37.8919V39.3501C160.53 39.36 160.87 39.3798 161.25 39.3798C162.04 39.3798 162.47 39.112 162.47 38.6161C162.47 38.1201 162.05 37.8919 161.29 37.8919H160.27Z" fill="black"/>
<path d="M164.7 35.6006C165.12 35.3327 165.7 35.1641 166.29 35.1641C167.65 35.1641 168.13 35.8684 168.13 37.1083V40.0246H167.32V39.4096C167.03 39.7667 166.57 40.094 165.79 40.094C164.92 40.094 164.32 39.5485 164.32 38.626C164.32 37.6539 165.1 37.1182 166.13 37.1182C166.5 37.1182 167 37.1877 167.32 37.4257C167.32 36.5429 167.18 35.9279 166.24 35.9279C165.65 35.9279 165.3 36.0767 164.92 36.2751L164.7 35.6006ZM167.33 38.7252V38.1201C167.03 37.9118 166.67 37.8027 166.26 37.8027C165.75 37.8027 165.24 38.0308 165.24 38.5863C165.24 39.0426 165.55 39.3302 166.1 39.3302C166.72 39.3302 167.08 39.0029 167.33 38.7252Z" fill="black"/>
<path d="M168.95 35.2732H173.31V36.1164H171.56V40.0147H170.71V36.1164H168.96V35.2732H168.95Z" fill="black"/>
<path d="M178.12 39.4989C177.65 39.9254 176.96 40.1238 176.32 40.1238C174.77 40.1238 173.76 39.1418 173.76 37.6439C173.76 36.2652 174.65 35.1641 176.23 35.1641C177.46 35.1641 178.45 36.0271 178.45 37.3364C178.45 37.5646 178.43 37.763 178.4 37.9019H174.72C174.79 38.7946 175.45 39.3302 176.39 39.3302C177.01 39.3302 177.55 39.1219 177.86 38.8343L178.12 39.4989ZM174.66 37.2273H177.56C177.52 36.4437 177.01 35.9577 176.18 35.9577C175.31 35.9577 174.76 36.4933 174.66 37.2273Z" fill="black"/>
<path d="M182.7 36.1164H181.02L180.97 36.9199C180.76 39.6179 180.03 40.0841 179.05 40.0841L178.99 39.2608C179.35 39.2906 180.03 38.9434 180.15 36.7512L180.23 35.2732H183.56V40.0246H182.71V36.1164H182.7Z" fill="black"/>
<path d="M185.08 35.2732H185.93V36.7016H186.8C188.27 36.7016 188.69 37.4952 188.69 38.3383C188.69 39.1715 188.2 40.0246 186.69 40.0246H185.07V35.2732H185.08ZM185.93 37.4853V39.2211H186.63C187.47 39.2211 187.79 38.9136 187.79 38.3582C187.79 37.7928 187.46 37.4853 186.64 37.4853H185.93Z" fill="black"/>
<path d="M193.86 39.3302C193.46 39.846 192.75 40.1238 192.02 40.1238C190.5 40.1238 189.46 39.1418 189.46 37.6439C189.46 36.2652 190.48 35.1641 191.88 35.1641C192.65 35.1641 193.32 35.3427 193.76 35.789L193.37 36.4536C192.97 36.0866 192.5 35.9577 192 35.9577C191.14 35.9577 190.36 36.6421 190.36 37.6439C190.36 38.6855 191.14 39.3302 192.08 39.3302C192.65 39.3302 193.13 39.0723 193.45 38.7152L193.86 39.3302Z" fill="black"/>
<path d="M194.96 35.2732H195.81V40.0246H194.96V35.2732ZM197.05 37.5448L199.35 40.0246H198.17L196.01 37.5944L198.03 35.2732H199.15L197.05 37.5448Z" fill="black"/>
<path d="M200.25 40.0246V35.2732H201.1V38.8045L203.87 35.2732H204.72V40.0246H203.87V36.4933L201.1 40.0246H200.25Z" fill="black"/>
<path d="M206.26 40.0246V35.2732H207.11V38.8045L209.88 35.2732H210.73V40.0246H209.88V36.4933L207.11 40.0246H206.26ZM207.74 32.843C207.78 33.4084 208.05 33.6762 208.56 33.6762C209.03 33.6762 209.29 33.4084 209.34 32.843H210.14C210.14 33.6762 209.52 34.321 208.57 34.321C207.52 34.321 206.95 33.6762 206.95 32.843H207.74Z" fill="black"/>
<path d="M33.6696 87.2506L36.9296 90.524L36.0796 91.3573L34.8996 90.1769L31.7696 93.2419L30.8696 92.3393L33.9996 89.2742L32.8196 88.0839L33.6696 87.2506Z" fill="#0072BC"/>
<path d="M40.1703 92.736C41.5903 93.6685 42.0503 95.2754 41.0703 96.7534C40.1403 98.1619 38.4203 98.4595 36.9903 97.5271C35.5703 96.5947 35.1103 94.9877 36.0903 93.5097C36.9803 92.1706 38.6803 91.7639 40.1703 92.736ZM37.6503 96.5451C38.5403 97.1204 39.4103 96.803 39.9303 96.0194C40.4903 95.1663 40.2703 94.2239 39.5103 93.728C38.7403 93.2221 37.7903 93.4006 37.2303 94.2537C36.7003 95.0572 36.9003 96.059 37.6503 96.5451Z" fill="#0072BC"/>
<path d="M43.81 95.0076L45.03 95.4143L45.9 98.1818L48.2 96.4955L49.35 96.8823L47.54 102.13L46.33 101.723L47.48 98.3702L45.3 99.9276L45.13 99.8681L44.36 97.3386L43.21 100.672L42 100.265L43.81 95.0076Z" fill="#0072BC"/>
<path d="M50.8699 98.6281C50.9799 97.7751 51.7599 97.1204 52.8699 97.2593C53.5799 97.3486 54.1299 97.6561 54.4299 98.0727L53.6299 98.9356C53.4099 98.6777 53.2499 98.5091 52.8399 98.4595C52.4899 98.4198 52.2599 98.5488 52.2299 98.7968C52.1099 99.7094 54.4599 99.7788 54.2299 101.574C54.1099 102.536 53.1899 103.092 52.1199 102.953C51.3699 102.864 50.5499 102.437 50.3599 101.812L51.1899 101.048C51.4499 101.495 51.9199 101.733 52.2999 101.783C52.6299 101.822 52.8399 101.683 52.8799 101.425C52.9799 100.592 50.6399 100.404 50.8699 98.6281Z" fill="#0072BC"/>
<path d="M56.4404 97.6759L57.7104 97.6461L57.7704 100.066L59.5504 97.6065L61.0804 97.5668L59.0404 100.176L61.3804 103.122L59.7504 103.151L57.7804 100.562L57.8404 103.201L56.5604 103.231L56.4404 97.6759Z" fill="#0072BC"/>
<path d="M64.7948 99.4803L62.7109 99.8083L62.8864 100.905L64.9703 100.577L64.7948 99.4803Z" fill="#0072BC"/>
<path d="M67.0501 96.4062L67.8801 96.1781L69.4101 101.515L68.2601 101.842L67.2001 98.1223L66.7601 98.648L65.8901 97.8743L67.0501 96.4062Z" fill="#0072BC"/>
<path d="M71.3302 99.3721C71.0102 98.6976 71.1702 98.1124 71.5002 97.7453L71.4902 97.7255C71.0702 97.7057 70.5702 97.4577 70.2702 96.8427C69.9002 96.059 70.3902 95.1663 71.3402 94.7199C72.2902 94.2835 73.3002 94.462 73.6802 95.2556C73.9102 95.7416 73.8702 96.3368 73.5202 96.7732L73.5302 96.7931C74.0302 96.7038 74.6302 96.9319 74.9402 97.5866C75.3902 98.529 74.8802 99.4217 73.8202 99.9177C72.7602 100.404 71.7402 100.225 71.3302 99.3721ZM72.3502 96.674C72.6902 96.5153 72.7302 96.1979 72.6202 95.9797C72.4902 95.7019 72.2202 95.6226 71.8502 95.7912C71.4702 95.9698 71.4102 96.2475 71.5302 96.4856C71.6302 96.7038 71.9002 96.8824 72.2602 96.7137L72.3502 96.674ZM72.7702 97.7949C72.4402 97.9437 72.2102 98.2611 72.3902 98.6182C72.5202 98.896 72.8302 99.0547 73.3002 98.8265C73.8502 98.5686 73.8602 98.2611 73.7202 97.9933C73.5402 97.6362 73.2002 97.5866 72.8502 97.7453L72.7702 97.7949Z" fill="#0072BC"/>
<path d="M74.1997 93.351L77.1797 91.2184L77.6597 91.8731L78.9197 96.8228L77.8597 97.5767L76.7197 93.0138L74.8997 94.3132L74.1997 93.351Z" fill="#0072BC"/>
<path d="M81.1102 93.2816C80.5702 92.7658 80.5102 92.1607 80.6902 91.6945L80.6702 91.6747C80.2702 91.8036 79.7202 91.754 79.2202 91.268C78.5902 90.6629 78.7302 89.6511 79.4602 88.9072C80.1902 88.1632 81.2002 87.9748 81.8402 88.5798C82.2302 88.9568 82.4002 89.5321 82.2302 90.0578L82.2502 90.0777C82.6802 89.8198 83.3302 89.8198 83.8502 90.3157C84.6102 91.0399 84.4502 92.0516 83.6302 92.8849C82.8202 93.7379 81.8002 93.9462 81.1102 93.2816ZM81.1002 90.405C81.3602 90.1372 81.2802 89.8297 81.1002 89.6611C80.8702 89.4428 80.6002 89.4627 80.3102 89.7602C80.0202 90.0578 80.0702 90.3455 80.2602 90.524C80.4402 90.6927 80.7502 90.7621 81.0202 90.4844L81.1002 90.405ZM81.8902 91.2978C81.6402 91.5557 81.5402 91.9326 81.8302 92.2103C82.0502 92.4286 82.3902 92.4682 82.7602 92.0913C83.1802 91.6548 83.0802 91.3672 82.8602 91.1589C82.5702 90.8911 82.2302 90.9605 81.9602 91.2382L81.8902 91.2978Z" fill="#0072BC"/>
</svg>
