<svg width="200" height="91" viewBox="0 0 200 91" fill="none" xmlns="http://www.w3.org/2000/svg">
<path d="M22.2222 48.0244V22.5444H34.8888V48.8464C34.8888 52.7652 37.4814 56.7868 42.6074 56.7868C47.674 56.7868 50.2666 52.7652 50.2666 48.8464V22.5444H62.9259V47.9657C62.9259 58.1225 56.5037 68.1105 42.6074 68.1105C28.7111 68.1105 22.2222 58.1225 22.2222 48.0244Z" fill="#0072BC"/>
<path d="M75.3556 7.12604H69.1408L65.0075 8.2562V9.72394H51.4667V8.17547L47.3186 6.58297H43.9556L43.2519 6.20136C43.2742 6.12797 43.2964 6.06192 43.2964 5.9812C43.2964 5.68765 43.1112 5.43813 42.8519 5.33539V2.8916H42.3334V5.33539C42.0742 5.43813 41.889 5.68765 41.889 5.9812C41.889 6.05458 41.9112 6.12797 41.9334 6.19402L41.2223 6.57563H37.7038L33.7556 8.22684V9.7166H20.126V8.2562L16.0001 7.12604H9.77786L5.64453 8.2562V14.1272V50.3951C5.64453 70.3784 22.0593 86.641 42.2297 86.641H42.9112C63.0816 86.641 79.4964 70.3784 79.4964 50.3951V10.4798H79.4816V8.26354L75.3556 7.12604ZM74.2223 50.3951C74.2223 67.5016 60.1779 81.4158 42.9112 81.4158H42.2297C24.963 81.4158 10.9186 67.5016 10.9186 50.3951V14.7069H74.2223V50.3951Z" fill="#0072BC"/>
<path d="M88.6597 37.3101H96.7337V38.9026H93.556V47.0118H91.8374V38.9026H88.6597V37.3101Z" fill="black"/>
<path d="M98.9706 40.6196C101.052 40.6196 102.4 42.0213 102.4 43.8927C102.4 45.7641 101.06 47.1658 98.9706 47.1658C96.8818 47.1658 95.541 45.7641 95.541 43.8927C95.541 42.0213 96.8892 40.6196 98.9706 40.6196ZM98.9706 45.6833C99.9632 45.6833 100.689 44.9788 100.689 43.8927C100.689 42.8359 99.9484 42.1167 98.9706 42.1167C98.0151 42.1167 97.2669 42.8066 97.2669 43.8927C97.2669 44.9348 97.9929 45.6833 98.9706 45.6833Z" fill="black"/>
<path d="M103.8 40.7739H105.252L107.393 43.3792L109.423 40.7739H110.837V47.0118H109.23V43.203L107.371 45.5294H107.326L105.408 43.203V47.0118H103.8V40.7739Z" fill="black"/>
<path d="M118.156 46.087C117.623 46.7915 116.675 47.1658 115.653 47.1658C113.608 47.1658 112.238 45.8595 112.238 43.8927C112.238 42.08 113.579 40.6196 115.497 40.6196C116.534 40.6196 117.445 40.8838 118.03 41.4636L117.275 42.7258C116.801 42.2708 116.282 42.1167 115.704 42.1167C114.808 42.1167 113.956 42.7992 113.956 43.8927C113.956 45.0008 114.823 45.6833 115.779 45.6833C116.467 45.6833 116.993 45.3678 117.401 44.9201L118.156 46.087Z" fill="black"/>
<path d="M119.445 40.7739H121.052V47.0118H119.445V40.7739ZM122.986 43.7388L125.704 47.0118H123.608L121.119 43.8635L123.386 40.7739H125.415L122.986 43.7388Z" fill="black"/>
<path d="M126.652 47.0118V40.7739H128.26V44.7221L131.2 40.7739H132.808V47.0118H131.2V43.0636L128.26 47.0118H126.652Z" fill="black"/>
<path d="M134.601 47.0116V40.7737H136.208V44.722L139.149 40.7737H140.756V47.0116H139.149V43.0634L136.208 47.0116H134.601ZM137.008 37.6548C137.008 38.1685 137.201 38.6675 137.734 38.6675C138.208 38.6675 138.408 38.1685 138.408 37.6548H139.875C139.875 38.8437 139.149 39.805 137.734 39.805C136.164 39.805 135.534 38.8657 135.534 37.6548H137.008Z" fill="black"/>
<path d="M89.415 54.7251H93.6447V56.2222H91.0299V60.963H89.4224V54.7251H89.415Z" fill="black"/>
<path d="M97.5039 54.5708C99.5853 54.5708 100.933 55.9725 100.933 57.8439C100.933 59.7152 99.5927 61.1169 97.5039 61.1169C95.415 61.1169 94.0742 59.7152 94.0742 57.8439C94.0742 55.9725 95.415 54.5708 97.5039 54.5708ZM97.5039 59.6345C98.4964 59.6345 99.2224 58.93 99.2224 57.8439C99.2224 56.7871 98.4816 56.0679 97.5039 56.0679C96.5483 56.0679 95.8001 56.7577 95.8001 57.8439C95.7927 58.886 96.5261 59.6345 97.5039 59.6345Z" fill="black"/>
<path d="M107.859 60.0308C107.326 60.7353 106.378 61.1096 105.356 61.1096C103.311 61.1096 101.941 59.8033 101.941 57.8365C101.941 56.0239 103.282 54.5635 105.2 54.5635C106.237 54.5635 107.148 54.8277 107.734 55.4074L106.978 56.6697C106.504 56.2147 105.985 56.0606 105.408 56.0606C104.511 56.0606 103.659 56.7431 103.659 57.8365C103.659 58.9447 104.526 59.6272 105.482 59.6272C106.171 59.6272 106.696 59.3116 107.104 58.864L107.859 60.0308Z" fill="black"/>
<path d="M112.549 60.963C111.623 63.1939 111.038 63.737 110.112 63.737C109.534 63.737 109.119 63.5169 108.756 63.2527L109.275 62.0491C109.445 62.1445 109.682 62.2693 109.934 62.2693C110.341 62.2693 110.63 61.9537 110.897 61.3006L111.038 60.9703L108.126 54.7324H110.06L111.526 58.1449C111.652 58.4531 111.734 58.7394 111.838 59.0476C111.897 58.754 111.949 58.4531 112.06 58.1302L113.193 54.7324H115.023L112.549 60.963Z" fill="black"/>
<path d="M114.719 59.4806H115.519C115.963 58.9008 116.319 57.6386 116.4 56.2222L116.497 54.7251H121.141V59.4806H122.193V62.4161H120.682V60.963H116.215V62.4161H114.719V59.4806ZM117.193 59.4806H119.534V56.2222H117.993L117.948 56.8607C117.822 58.1743 117.474 59.0916 117.193 59.4806Z" fill="black"/>
<path d="M123.334 55.1652C123.882 54.8497 124.734 54.5708 125.556 54.5708C127.415 54.5708 128.074 55.5102 128.074 57.1614V60.9628H126.674V60.2436C126.341 60.7133 125.667 61.0509 124.815 61.0509C123.667 61.0509 122.845 60.3464 122.845 59.1355C122.845 57.7631 123.867 57.11 125.141 57.11C125.704 57.11 126.26 57.2935 126.571 57.5136C126.615 56.4715 126.334 55.9064 125.393 55.9064C124.667 55.9064 124.2 56.1266 123.741 56.3394L123.334 55.1652ZM126.571 59.1355V58.497C126.289 58.2915 125.926 58.1888 125.467 58.1888C124.934 58.1888 124.46 58.4383 124.46 58.9667C124.46 59.4364 124.852 59.7006 125.356 59.7006C126.023 59.7006 126.371 59.407 126.571 59.1355Z" fill="black"/>
<path d="M129.733 54.7249H131.341V55.3193C131.733 54.901 132.474 54.5708 133.289 54.5708C135.022 54.5708 136.141 55.8991 136.141 57.7485C136.141 59.6492 134.822 61.1169 132.807 61.1169C132.245 61.1169 131.704 61.0215 131.341 60.8087V63.7368H129.733V54.7249ZM131.341 56.7504V59.2749C131.778 59.5538 132.141 59.6345 132.667 59.6345C133.785 59.6345 134.43 58.8273 134.43 57.7925C134.43 56.7944 133.845 56.0752 132.778 56.0752C132.237 56.0679 131.733 56.3174 131.341 56.7504Z" fill="black"/>
<path d="M143.067 60.0308C142.534 60.7353 141.585 61.1096 140.563 61.1096C138.519 61.1096 137.148 59.8033 137.148 57.8365C137.148 56.0239 138.489 54.5635 140.408 54.5635C141.445 54.5635 142.356 54.8277 142.941 55.4074L142.185 56.6697C141.711 56.2147 141.193 56.0606 140.615 56.0606C139.719 56.0606 138.867 56.7431 138.867 57.8365C138.867 58.9447 139.734 59.6272 140.689 59.6272C141.378 59.6272 141.904 59.3116 142.311 58.864L143.067 60.0308Z" fill="black"/>
<path d="M143.57 54.7251H149.311V56.3176H147.252V60.963H145.644V56.3176H143.57V54.7251Z" fill="black"/>
<path d="M150.46 54.7247C151.008 54.7101 151.956 54.6587 152.934 54.6587C154.763 54.6587 155.785 55.1577 155.785 56.2952C155.785 57.0438 155.237 57.5868 154.608 57.6822V57.7116C155.489 57.9171 155.948 58.4308 155.948 59.15C155.948 60.3829 154.985 61.036 152.956 61.036C152.171 61.036 151.023 60.97 150.452 60.97V54.7247H150.46ZM152.067 55.9723V57.3447H153.119C153.652 57.3447 154.082 57.1098 154.082 56.6255C154.082 56.1705 153.674 55.943 153.074 55.943C152.697 55.943 152.237 55.9576 152.067 55.9723ZM152.067 58.3134V59.7004C152.304 59.7151 152.741 59.7591 153.134 59.7591C153.845 59.7591 154.267 59.4655 154.267 59.0399C154.267 58.5702 153.837 58.3207 153.074 58.3207H152.067V58.3134Z" fill="black"/>
<path d="M162.889 60.339C162.26 60.8674 161.363 61.1169 160.482 61.1169C158.452 61.1169 157.097 59.8106 157.097 57.8439C157.097 56.0312 158.356 54.5708 160.43 54.5708C162.052 54.5708 163.408 55.723 163.408 57.4696C163.408 57.8585 163.378 58.0934 163.311 58.3282H158.763C158.904 59.2676 159.66 59.7813 160.652 59.7813C161.423 59.7813 162.067 59.5024 162.43 59.2162L162.889 60.339ZM158.704 57.2641H161.793C161.808 56.5009 161.274 55.9064 160.349 55.9064C159.386 55.8991 158.867 56.4422 158.704 57.2641Z" fill="black"/>
<path d="M169.074 58.5779H166.319V60.963H164.711V54.7251H166.319V57.0808H169.074V54.7251H170.682V60.963H169.074V58.5779Z" fill="black"/>
<path d="M176.838 58.5779H174.082V60.963H172.475V54.7251H174.082V57.0808H176.838V54.7251H178.445V60.963H176.838V58.5779Z" fill="black"/>
<path d="M180.237 54.7251H181.845V56.4277H182.63C184.771 56.4277 185.4 57.4845 185.4 58.5926C185.4 59.7888 184.645 60.963 182.504 60.963H180.237V54.7251ZM181.852 57.7046V59.576H182.482C183.348 59.576 183.697 59.2164 183.697 58.644C183.697 58.0789 183.363 57.7046 182.489 57.7046H181.852ZM186.297 54.7251H187.904V60.963H186.297V54.7251Z" fill="black"/>
<path d="M189.704 60.9628V54.7249H191.311V58.6731L194.252 54.7249H195.859V60.9628H194.252V57.0146L191.311 60.9628H189.704ZM192.104 51.606C192.104 52.1197 192.296 52.6187 192.83 52.6187C193.304 52.6187 193.504 52.1197 193.504 51.606H194.97C194.97 52.7948 194.244 53.7562 192.83 53.7562C191.259 53.7562 190.63 52.8168 190.63 51.606H192.104Z" fill="black"/>
<path d="M93.0072 74.9137C92.0813 77.1446 91.4961 77.6877 90.5702 77.6877C89.9998 77.6877 89.5776 77.4675 89.2146 77.2033L89.7331 75.9998C89.9035 76.0952 90.1405 76.22 90.3924 76.22C90.7998 76.22 91.0887 75.9044 91.3553 75.2513L91.4961 74.921L88.585 68.6831H90.5183L91.985 72.0956C92.1109 72.4038 92.1924 72.69 92.2961 72.9983C92.3553 72.7047 92.4072 72.4038 92.5183 72.0809L93.6516 68.6831H95.4813L93.0072 74.9137Z" fill="black"/>
<path d="M100.815 72.5286H98.0591V74.9137H96.4517V68.6758H98.0591V71.0315H100.815V68.6758H102.422V74.9137H100.815V72.5286Z" fill="black"/>
<path d="M104.222 74.9137V68.6758H105.829V72.624L108.77 68.6758H110.377V74.9137H108.77V70.9655L105.829 74.9137H104.222Z" fill="black"/>
<path d="M112.17 68.6681C112.719 68.6534 113.667 68.6021 114.645 68.6021C116.474 68.6021 117.496 69.1011 117.496 70.2386C117.496 70.9871 116.948 71.5302 116.319 71.6256V71.6549C117.2 71.8604 117.659 72.3741 117.659 73.0933C117.659 74.3262 116.696 74.9794 114.667 74.9794C113.882 74.9794 112.733 74.9133 112.163 74.9133V68.6681H112.17ZM113.778 69.9157V71.288H114.83C115.363 71.288 115.793 71.0532 115.793 70.5688C115.793 70.1138 115.385 69.8863 114.785 69.8863C114.408 69.8937 113.948 69.9083 113.778 69.9157ZM113.778 72.2641V73.6511C114.015 73.6657 114.452 73.7098 114.845 73.7098C115.556 73.7098 115.978 73.4162 115.978 72.9906C115.978 72.5209 115.548 72.2714 114.785 72.2714H113.778V72.2641Z" fill="black"/>
<path d="M124.592 74.2897C123.963 74.8181 123.066 75.0676 122.185 75.0676C120.155 75.0676 118.8 73.7613 118.8 71.7945C118.8 69.9819 120.059 68.5215 122.133 68.5215C123.755 68.5215 125.111 69.6737 125.111 71.4203C125.111 71.8092 125.081 72.0441 125.015 72.2789H120.466C120.607 73.2182 121.363 73.732 122.355 73.732C123.126 73.732 123.77 73.4531 124.133 73.1669L124.592 74.2897ZM120.415 71.2074H123.504C123.518 70.4442 122.985 69.8498 122.059 69.8498C121.096 69.8498 120.578 70.3929 120.415 71.2074Z" fill="black"/>
<path d="M126.415 68.6683H128.022V69.2627C128.415 68.8444 129.155 68.5142 129.97 68.5142C131.703 68.5142 132.822 69.8425 132.822 71.6918C132.822 73.5925 131.503 75.0603 129.489 75.0603C128.926 75.0603 128.385 74.9649 128.022 74.7521V77.6802H126.415V68.6683ZM128.022 70.6938V73.2183C128.452 73.4971 128.822 73.5779 129.348 73.5779C130.466 73.5779 131.111 72.7706 131.111 71.7359C131.111 70.7378 130.526 70.0186 129.459 70.0186C128.918 70.0186 128.415 70.2681 128.022 70.6938Z" fill="black"/>
<path d="M139.755 73.9815C139.222 74.686 138.274 75.0603 137.252 75.0603C135.207 75.0603 133.837 73.754 133.837 71.7872C133.837 69.9746 135.178 68.5142 137.096 68.5142C138.133 68.5142 139.044 68.7784 139.629 69.3581L138.874 70.6204C138.4 70.1654 137.881 70.0113 137.304 70.0113C136.407 70.0113 135.555 70.6938 135.555 71.7872C135.555 72.8954 136.422 73.5779 137.378 73.5779C138.067 73.5779 138.592 73.2623 139 72.8146L139.755 73.9815Z" fill="black"/>
<path d="M141.037 74.9137V68.6758H142.644V72.624L145.585 68.6758H147.192V74.9137H145.585V70.9655L142.644 74.9137H141.037Z" fill="black"/>
<path d="M148.333 68.6685H154.074V70.261H152.014V74.9064H150.407V70.261H148.333V68.6685Z" fill="black"/>
<path d="M160.422 74.2897C159.792 74.8181 158.896 75.0676 158.015 75.0676C155.985 75.0676 154.629 73.7613 154.629 71.7945C154.629 69.9819 155.889 68.5215 157.963 68.5215C159.585 68.5215 160.941 69.6737 160.941 71.4203C160.941 71.8092 160.911 72.0441 160.844 72.2789H156.296C156.437 73.2182 157.192 73.732 158.185 73.732C158.955 73.732 159.6 73.4531 159.963 73.1669L160.422 74.2897ZM156.237 71.2074H159.326C159.341 70.4442 158.807 69.8498 157.881 69.8498C156.926 69.8498 156.407 70.3929 156.237 71.2074Z" fill="black"/>
<path d="M161.526 68.6685H167.267V70.261H165.207V74.9064H163.6V70.261H161.526V68.6685Z" fill="black"/>
<path d="M93.3184 17.7745H90.2887V20.2476H89.6221V14.7876H90.2887V17.1507H93.3184V14.7876H93.985V20.2476H93.3184V17.7745Z" fill="black"/>
<path d="M95.4074 16.9821C95.7259 16.7839 96.1481 16.6592 96.5926 16.6592C97.6 16.6592 97.9555 17.1802 97.9555 18.0976V20.2551H97.3555V19.8001C97.1407 20.0643 96.8074 20.3065 96.2222 20.3065C95.5777 20.3065 95.1333 19.9029 95.1333 19.2204C95.1333 18.5012 95.7111 18.1049 96.4741 18.1049C96.7481 18.1049 97.1185 18.1563 97.3555 18.3324C97.3555 17.6793 97.2518 17.2243 96.5555 17.2243C96.1259 17.2243 95.8592 17.3343 95.5778 17.4811L95.4074 16.9821ZM97.3481 19.2864V18.8388C97.1259 18.6847 96.8592 18.6039 96.5555 18.6039C96.1778 18.6039 95.8 18.7727 95.8 19.1837C95.8 19.5213 96.0296 19.7341 96.437 19.7341C96.9037 19.7414 97.1703 19.4993 97.3481 19.2864Z" fill="black"/>
<path d="M99 16.7324H99.6296V19.6606H101.519V16.7324H102.148V19.6606H102.741V21.1063H102.148V20.2477H99V16.7324Z" fill="black"/>
<path d="M103.429 20.2477V16.7324H104.059V19.345L106.111 16.7324H106.74V20.2477H106.111V17.6351L104.059 20.2477H103.429Z" fill="black"/>
<path d="M109.533 16.6592C110.666 16.6592 111.422 17.4371 111.422 18.4939C111.422 19.5506 110.666 20.3285 109.533 20.3285C108.4 20.3285 107.644 19.5506 107.644 18.4939C107.637 17.4371 108.4 16.6592 109.533 16.6592ZM109.533 19.7414C110.244 19.7414 110.755 19.2424 110.755 18.4939C110.755 17.76 110.244 17.2463 109.533 17.2463C108.837 17.2463 108.311 17.7526 108.311 18.4939C108.311 19.2277 108.822 19.7414 109.533 19.7414Z" fill="black"/>
<path d="M114.926 18.7652H112.955V20.2477H112.326V16.7324H112.955V18.1781H114.926V16.7324H115.555V20.2477H114.926V18.7652Z" fill="black"/>
<path d="M116.718 16.9821C117.03 16.7839 117.459 16.6592 117.896 16.6592C118.904 16.6592 119.259 17.1802 119.259 18.0976V20.2551H118.659V19.8001C118.444 20.0643 118.104 20.3065 117.526 20.3065C116.881 20.3065 116.437 19.9029 116.437 19.2204C116.437 18.5012 117.015 18.1049 117.778 18.1049C118.052 18.1049 118.422 18.1563 118.659 18.3324C118.659 17.6793 118.556 17.2243 117.859 17.2243C117.43 17.2243 117.163 17.3343 116.881 17.4811L116.718 16.9821ZM118.667 19.2864V18.8388C118.444 18.6847 118.178 18.6039 117.874 18.6039C117.496 18.6039 117.118 18.7727 117.118 19.1837C117.118 19.5213 117.348 19.7341 117.756 19.7341C118.215 19.7414 118.481 19.4993 118.667 19.2864Z" fill="black"/>
<path d="M122.74 17.3635H121.496L121.459 17.958C121.303 19.9541 120.763 20.299 120.037 20.299L119.992 19.6899C120.259 19.7119 120.763 19.4551 120.851 17.8332L120.911 16.7397H123.377V20.255H122.748V17.3635H122.74Z" fill="black"/>
<path d="M124.503 16.7324H125.133V17.7892H125.778C126.866 17.7892 127.178 18.3763 127.178 19.0001C127.178 19.6165 126.815 20.2477 125.696 20.2477H124.496V16.7324H124.503ZM125.133 18.3763V19.6606H125.652C126.274 19.6606 126.511 19.4331 126.511 19.0221C126.511 18.6038 126.266 18.3763 125.659 18.3763H125.133Z" fill="black"/>
<path d="M130.622 18.7652H128.652V20.2477H128.022V16.7324H128.652V18.1781H130.622V16.7324H131.252V20.2477H130.622V18.7652Z" fill="black"/>
<path d="M132.393 16.7324H133.022V17.7892H133.607C134.696 17.7892 135.007 18.3763 135.007 19.0001C135.007 19.6165 134.644 20.2477 133.533 20.2477H132.393V16.7324ZM133.022 18.3763V19.6606H133.481C134.111 19.6606 134.341 19.4331 134.341 19.0221C134.341 18.6038 134.096 18.3763 133.489 18.3763H133.022ZM135.689 16.7324H136.318V20.2477H135.689V16.7324Z" fill="black"/>
<path d="M137.444 20.2478V16.7325H138.074V19.3451L140.126 16.7325H140.755V20.2478H140.126V17.6352L138.074 20.2478H137.444ZM138.541 14.9419C138.57 15.3602 138.77 15.5583 139.148 15.5583C139.496 15.5583 139.689 15.3602 139.726 14.9419H140.318C140.318 15.5583 139.859 16.0354 139.155 16.0354C138.378 16.0354 137.955 15.5583 137.955 14.9419H138.541Z" fill="black"/>
<path d="M89.3555 29.6114V26.0962H89.9851V28.7088L92.037 26.0962H92.6666V29.6114H92.037V26.9989L89.9851 29.6114H89.3555Z" fill="black"/>
<path d="M96.8296 29.0979C96.5333 29.4795 96.0074 29.685 95.4666 29.685C94.3407 29.685 93.5703 28.9584 93.5703 27.8503C93.5703 26.8302 94.3259 26.0156 95.3629 26.0156C95.9333 26.0156 96.4296 26.1477 96.7555 26.478L96.4666 26.9697C96.1703 26.6981 95.8222 26.6027 95.4518 26.6027C94.8148 26.6027 94.237 27.1091 94.237 27.8503C94.237 28.6209 94.8148 29.0979 95.5111 29.0979C95.9333 29.0979 96.2888 28.9071 96.5259 28.6429L96.8296 29.0979Z" fill="black"/>
<path d="M100.496 29.0979C100.2 29.4795 99.6739 29.685 99.1331 29.685C98.0072 29.685 97.2368 28.9584 97.2368 27.8503C97.2368 26.8302 97.9924 26.0156 99.0294 26.0156C99.5998 26.0156 100.096 26.1477 100.422 26.478L100.133 26.9697C99.8368 26.6981 99.4887 26.6027 99.1183 26.6027C98.4813 26.6027 97.9035 27.1091 97.9035 27.8503C97.9035 28.6209 98.4813 29.0979 99.1776 29.0979C99.5998 29.0979 99.9553 28.9071 100.192 28.6429L100.496 29.0979Z" fill="black"/>
<path d="M103.674 26.72H102.429L102.392 27.3144C102.237 29.3105 101.696 29.6555 100.97 29.6555L100.926 29.0463C101.192 29.0684 101.696 28.8115 101.785 27.1897L101.844 26.0962H104.311V29.6114H103.681V26.72H103.674Z" fill="black"/>
<path d="M108.43 29.2226C108.082 29.5382 107.571 29.685 107.096 29.685C105.948 29.685 105.2 28.9584 105.2 27.8503C105.2 26.8302 105.859 26.0156 107.03 26.0156C107.941 26.0156 108.674 26.6541 108.674 27.6228C108.674 27.7916 108.659 27.9384 108.637 28.0411H105.911C105.963 28.7016 106.452 29.0979 107.148 29.0979C107.608 29.0979 108.008 28.9438 108.237 28.7309L108.43 29.2226ZM105.867 27.5421H108.015C107.985 26.9623 107.608 26.6027 106.993 26.6027C106.348 26.6027 105.941 26.999 105.867 27.5421Z" fill="black"/>
<path d="M108.904 29.0243H109.348C109.585 28.7308 109.83 27.9896 109.889 27.0282L109.941 26.0962H112.363V29.0243H112.956V30.4701H112.363V29.6114H109.496V30.4701H108.904V29.0243ZM110.015 29.0243H111.733V26.6833H110.533L110.496 27.2704C110.422 28.1657 110.185 28.8042 110.015 29.0243Z" fill="black"/>
<path d="M115.296 26.0156C116.429 26.0156 117.185 26.7935 117.185 27.8503C117.185 28.9071 116.429 29.685 115.296 29.685C114.163 29.685 113.407 28.9071 113.407 27.8503C113.4 26.8009 114.155 26.0156 115.296 26.0156ZM115.296 29.0979C116.007 29.0979 116.518 28.5989 116.518 27.8503C116.518 27.1164 116.007 26.6027 115.296 26.6027C114.6 26.6027 114.074 27.1091 114.074 27.8503C114.074 28.5842 114.585 29.0979 115.296 29.0979Z" fill="black"/>
<path d="M118.089 26.0963C118.393 26.0963 118.859 26.0669 119.37 26.0669C120.363 26.0669 120.896 26.3384 120.896 26.9696C120.896 27.3805 120.615 27.7108 120.185 27.7768V27.7915C120.756 27.8942 121.015 28.1804 121.015 28.6208C121.015 29.2812 120.489 29.6408 119.385 29.6408C118.941 29.6408 118.407 29.6115 118.089 29.6115V26.0963ZM118.719 26.5953V27.6447H119.511C119.926 27.6447 120.23 27.4392 120.23 27.1017C120.23 26.72 119.874 26.5806 119.422 26.5806C119.133 26.5733 118.874 26.5879 118.719 26.5953ZM118.719 28.0337V29.1125C118.911 29.1198 119.163 29.1345 119.444 29.1345C120.03 29.1345 120.348 28.9363 120.348 28.5694C120.348 28.2025 120.037 28.0337 119.474 28.0337H118.719Z" fill="black"/>
<path d="M122 26.3385C122.311 26.1404 122.741 26.0156 123.178 26.0156C124.185 26.0156 124.541 26.5367 124.541 27.454V29.6116H123.941V29.1566C123.726 29.4208 123.385 29.663 122.808 29.663C122.163 29.663 121.719 29.2593 121.719 28.5768C121.719 27.8576 122.297 27.4613 123.059 27.4613C123.334 27.4613 123.704 27.5127 123.941 27.6889C123.941 27.0357 123.837 26.5807 123.141 26.5807C122.704 26.5807 122.445 26.6908 122.163 26.8376L122 26.3385ZM123.948 28.6502V28.2026C123.726 28.0484 123.459 27.9677 123.156 27.9677C122.778 27.9677 122.4 28.1365 122.4 28.5475C122.4 28.8851 122.63 29.0979 123.037 29.0979C123.497 29.0979 123.763 28.8557 123.948 28.6502Z" fill="black"/>
<path d="M125.148 26.0962H128.378V26.72H127.082V29.6041H126.452V26.72H125.156V26.0962H125.148Z" fill="black"/>
<path d="M131.941 29.2226C131.592 29.5382 131.081 29.685 130.607 29.685C129.459 29.685 128.711 28.9584 128.711 27.8503C128.711 26.8302 129.37 26.0156 130.541 26.0156C131.452 26.0156 132.185 26.6541 132.185 27.6228C132.185 27.7916 132.17 27.9384 132.148 28.0411H129.422C129.474 28.7016 129.963 29.0979 130.659 29.0979C131.118 29.0979 131.518 28.9438 131.748 28.7309L131.941 29.2226ZM129.378 27.5421H131.526C131.496 26.9623 131.118 26.6027 130.504 26.6027C129.859 26.6027 129.452 26.999 129.378 27.5421Z" fill="black"/>
<path d="M135.333 26.72H134.089L134.052 27.3144C133.896 29.3105 133.355 29.6555 132.629 29.6555L132.585 29.0463C132.852 29.0684 133.355 28.8115 133.444 27.1897L133.503 26.0962H135.97V29.6114H135.34V26.72H135.333Z" fill="black"/>
<path d="M137.096 26.0962H137.726V27.153H138.37C139.459 27.153 139.77 27.7401 139.77 28.3639C139.77 28.9803 139.407 29.6114 138.289 29.6114H137.089V26.0962H137.096ZM137.726 27.7327V29.017H138.244C138.867 29.017 139.104 28.7895 139.104 28.3785C139.104 27.9602 138.859 27.7327 138.252 27.7327H137.726Z" fill="black"/>
<path d="M143.6 29.0979C143.304 29.4795 142.778 29.685 142.237 29.685C141.111 29.685 140.341 28.9584 140.341 27.8503C140.341 26.8302 141.096 26.0156 142.133 26.0156C142.704 26.0156 143.2 26.1477 143.526 26.478L143.237 26.9697C142.941 26.6981 142.593 26.6027 142.222 26.6027C141.585 26.6027 141.007 27.1091 141.007 27.8503C141.007 28.6209 141.585 29.0979 142.282 29.0979C142.704 29.0979 143.059 28.9071 143.296 28.6429L143.6 29.0979Z" fill="black"/>
<path d="M144.415 26.0962H145.045V29.6114H144.415V26.0962ZM145.963 27.7768L147.667 29.6114H146.793L145.193 27.8134L146.689 26.0962H147.519L145.963 27.7768Z" fill="black"/>
<path d="M148.333 29.6114V26.0962H148.963V28.7088L151.015 26.0962H151.645V29.6114H151.015V26.9989L148.963 29.6114H148.333Z" fill="black"/>
<path d="M152.785 29.6116V26.0963H153.415V28.7089L155.467 26.0963H156.096V29.6116H155.467V26.999L153.415 29.6116H152.785ZM153.881 24.2983C153.911 24.7166 154.111 24.9148 154.489 24.9148C154.837 24.9148 155.03 24.7166 155.067 24.2983H155.659C155.659 24.9148 155.2 25.3918 154.496 25.3918C153.719 25.3918 153.296 24.9148 153.296 24.2983H153.881Z" fill="black"/>
<path d="M24.9408 64.5513L27.3556 66.973L26.726 67.5895L25.8519 66.7162L23.5334 68.9838L22.8667 68.316L25.1852 66.0484L24.3111 65.1677L24.9408 64.5513Z" fill="#0072BC"/>
<path d="M29.7553 68.6095C30.8071 69.2994 31.1479 70.4883 30.4219 71.5817C29.733 72.6238 28.459 72.844 27.3997 72.1542C26.3479 71.4643 26.0071 70.2754 26.733 69.182C27.3923 68.1912 28.6516 67.8903 29.7553 68.6095ZM27.8886 71.4276C28.5479 71.8533 29.1923 71.6184 29.5775 71.0387C29.9923 70.4075 29.8293 69.7104 29.2664 69.3434C28.696 68.9691 27.9923 69.1012 27.5775 69.7324C27.1849 70.3268 27.3331 71.068 27.8886 71.4276Z" fill="#0072BC"/>
<path d="M32.4521 70.29L33.3558 70.5909L34.0002 72.6384L35.7039 71.3908L36.5558 71.6771L35.215 75.5592L34.3187 75.2584L35.1706 72.7779L33.5558 73.93L33.4298 73.886L32.8595 72.0146L32.0076 74.4804L31.1113 74.1796L32.4521 70.29Z" fill="#0072BC"/>
<path d="M37.6815 72.9689C37.763 72.3378 38.3407 71.8534 39.163 71.9562C39.6889 72.0222 40.0963 72.2497 40.3185 72.558L39.7259 73.1964C39.563 73.0056 39.4445 72.8809 39.1407 72.8442C38.8815 72.8148 38.7111 72.9102 38.6889 73.0937C38.6 73.7688 40.3407 73.8202 40.1704 75.1485C40.0815 75.8604 39.4 76.2713 38.6074 76.1686C38.0519 76.1025 37.4445 75.787 37.3037 75.3246L37.9185 74.7596C38.1111 75.0898 38.4593 75.2659 38.7407 75.3026C38.9852 75.332 39.1407 75.2292 39.1704 75.0384C39.2445 74.422 37.5111 74.2825 37.6815 72.9689Z" fill="#0072BC"/>
<path d="M41.8071 72.2643L42.7479 72.2423L42.7923 74.0329L44.1108 72.2129L45.2442 72.1836L43.7331 74.1137L45.4664 76.2933L44.259 76.3153L42.7997 74.3999L42.8442 76.352L41.896 76.374L41.8071 72.2643Z" fill="#0072BC"/>
<path d="M47.9957 73.5992L46.4521 73.8418L46.5822 74.6535L48.1257 74.4109L47.9957 73.5992Z" fill="#0072BC"/>
<path d="M49.6664 71.325L50.2812 71.1562L51.4145 75.1045L50.5627 75.3466L49.7775 72.5946L49.4516 72.9836L48.8071 72.4112L49.6664 71.325Z" fill="#0072BC"/>
<path d="M52.8368 73.519C52.5997 73.02 52.7183 72.587 52.9627 72.3155L52.9553 72.3008C52.6442 72.2861 52.2738 72.1026 52.0516 71.6476C51.7775 71.0679 52.1405 70.4074 52.8442 70.0771C53.5479 69.7542 54.296 69.8863 54.5775 70.4734C54.7479 70.833 54.7183 71.2734 54.459 71.5963L54.4664 71.6109C54.8368 71.5449 55.2812 71.7137 55.5109 72.198C55.8442 72.8952 55.4664 73.5557 54.6812 73.9226C53.896 74.2822 53.1405 74.1501 52.8368 73.519ZM53.5923 71.5229C53.8442 71.4054 53.8738 71.1706 53.7923 71.0092C53.696 70.8037 53.496 70.745 53.222 70.8697C52.9405 71.0018 52.896 71.2073 52.9849 71.3834C53.059 71.5449 53.259 71.677 53.5257 71.5522L53.5923 71.5229ZM53.9034 72.3521C53.659 72.4622 53.4886 72.6971 53.622 72.9613C53.7183 73.1667 53.9479 73.2842 54.296 73.1154C54.7034 72.9246 54.7109 72.6971 54.6072 72.4989C54.4738 72.2347 54.222 72.198 53.9627 72.3155L53.9034 72.3521Z" fill="#0072BC"/>
<path d="M54.9629 69.0646L57.1703 67.4868L57.5259 67.9712L58.4592 71.6332L57.674 72.1909L56.8296 68.8151L55.4814 69.7765L54.9629 69.0646Z" fill="#0072BC"/>
<path d="M60.0815 69.0133C59.6815 68.6317 59.637 68.1841 59.7704 67.8391L59.7555 67.8245C59.4592 67.9199 59.0518 67.8832 58.6815 67.5236C58.2148 67.0759 58.3185 66.3274 58.8592 65.777C59.4 65.2266 60.1481 65.0871 60.6222 65.5348C60.9111 65.8137 61.037 66.2393 60.9111 66.6283L60.9259 66.6429C61.2444 66.4521 61.7259 66.4521 62.1111 66.8191C62.6741 67.3548 62.5556 68.1033 61.9481 68.7198C61.3481 69.3509 60.5926 69.505 60.0815 69.0133ZM60.0741 66.8851C60.2667 66.687 60.2074 66.4595 60.0741 66.3347C59.9037 66.1732 59.7037 66.1879 59.4889 66.4081C59.2741 66.6282 59.3111 66.8411 59.4518 66.9732C59.5852 67.0979 59.8148 67.1493 60.0148 66.9438L60.0741 66.8851ZM60.6593 67.5456C60.4741 67.7364 60.4 68.0153 60.6148 68.2208C60.7778 68.3822 61.0296 68.4116 61.3037 68.1327C61.6148 67.8098 61.5407 67.597 61.3778 67.4429C61.163 67.2447 60.9111 67.2961 60.7111 67.5016L60.6593 67.5456Z" fill="#0072BC"/>
</svg>
