<svg width="35" height="36" viewBox="0 0 35 36" fill="none" xmlns="http://www.w3.org/2000/svg">
<path d="M17.5 0C7.8349 0 0 7.99164 0 17.8501C0 27.7086 7.8349 35.7002 17.5 35.7002C27.1651 35.7002 35 27.7086 35 17.8501C35 7.99164 27.1651 0 17.5 0ZM24.6185 14.6222C24.6258 14.7747 24.6276 14.9271 24.6276 15.0759C24.6276 19.7244 21.1622 25.0812 14.8221 25.0812C12.9487 25.0844 11.1143 24.5356 9.53932 23.5008C9.80729 23.5342 10.0826 23.5473 10.3615 23.5473C11.9766 23.5473 13.4622 22.9876 14.6417 22.043C13.9229 22.0286 13.2265 21.7859 12.6494 21.3486C12.0724 20.9113 11.6434 20.3012 11.4224 19.6035C11.9386 19.7036 12.4703 19.6826 12.9773 19.5421C12.1972 19.3812 11.4957 18.9501 10.9917 18.3218C10.4876 17.6934 10.2122 16.9067 10.212 16.0948V16.0521C10.6768 16.3142 11.2091 16.4742 11.7742 16.4927C11.0429 15.9962 10.5251 15.2333 10.3269 14.3603C10.1287 13.4872 10.2649 12.5699 10.7078 11.7959C11.5736 12.8818 12.6533 13.7701 13.8771 14.4034C15.1008 15.0366 16.4413 15.4007 17.8117 15.4719C17.6375 14.7176 17.7125 13.9257 18.025 13.2193C18.3376 12.5129 18.8701 11.9317 19.54 11.5659C20.2098 11.2001 20.9793 11.0703 21.729 11.1966C22.4786 11.323 23.1663 11.6984 23.6852 12.2645C24.4566 12.1088 25.1963 11.8202 25.8727 11.411C25.6156 12.2257 25.0773 12.9175 24.3578 13.3578C25.0411 13.2739 25.7084 13.0865 26.3375 12.8019C25.8754 13.5082 25.2932 14.1247 24.6185 14.6222Z" fill="#2D9CDB"/>
</svg>
