<svg width="34" height="36" viewBox="0 0 34 36" fill="none" xmlns="http://www.w3.org/2000/svg">
<path d="M17 0C7.61104 0 0 7.99164 0 17.8501C0 27.7086 7.61104 35.7002 17 35.7002C26.389 35.7002 34 27.7086 34 17.8501C34 7.99164 26.389 0 17 0ZM23.5379 20.139C23.5379 20.139 25.0414 21.6972 25.4115 22.4205C25.4221 22.4353 25.4274 22.4502 25.4309 22.4577C25.5815 22.7235 25.6169 22.9299 25.5425 23.0843C25.4185 23.3409 24.9935 23.4673 24.8483 23.4785H22.1921C22.0079 23.4785 21.6219 23.4283 21.1544 23.0898C20.7949 22.8258 20.4407 22.3926 20.0954 21.9705C19.5801 21.342 19.1339 20.7991 18.6841 20.7991C18.6269 20.799 18.5702 20.8084 18.5158 20.827C18.1758 20.9423 17.7402 21.4517 17.7402 22.8091C17.7402 23.233 17.4215 23.4766 17.1966 23.4766H15.98C15.5656 23.4766 13.407 23.3241 11.4945 21.2063C9.15344 18.6124 7.04615 13.4099 7.02844 13.3615C6.89562 13.025 7.1701 12.8446 7.46937 12.8446H10.1522C10.5099 12.8446 10.6268 13.0733 10.7082 13.276C10.8039 13.5122 11.1545 14.4511 11.73 15.5073C12.6632 17.2291 13.2352 17.9282 13.6939 17.9282C13.7799 17.9271 13.8643 17.9042 13.94 17.8613C14.5385 17.5117 14.427 15.2711 14.4004 14.8063C14.4004 14.7189 14.3986 13.8041 14.0923 13.3653C13.8727 13.0473 13.4991 12.9264 13.2724 12.8818C13.3641 12.7489 13.485 12.6411 13.6248 12.5676C14.0356 12.3519 14.7758 12.3203 15.5107 12.3203H15.9198C16.7167 12.3314 16.9221 12.3854 17.2107 12.4616C17.7951 12.6085 17.8075 13.0045 17.7561 14.36C17.7402 14.7449 17.7243 15.18 17.7243 15.6932C17.7243 15.8048 17.719 15.9238 17.719 16.0502C17.7013 16.74 17.68 17.5228 18.144 17.8445C18.2045 17.8844 18.2744 17.9056 18.3458 17.9059C18.507 17.9059 18.9922 17.9059 20.3061 15.5389C20.7114 14.777 21.0635 13.9853 21.3598 13.17C21.3864 13.1217 21.4643 12.9729 21.5564 12.9153C21.6243 12.8789 21.6997 12.8604 21.7759 12.8614H24.9298C25.2733 12.8614 25.5089 12.9153 25.5531 13.0547C25.631 13.276 25.539 13.951 24.0993 15.9981L23.4565 16.8888C22.1514 18.685 22.1514 18.7761 23.5379 20.139Z" fill="#48729E"/>
</svg>
