<svg width="18" height="16" viewBox="0 0 18 16" fill="none" xmlns="http://www.w3.org/2000/svg">
<path fill-rule="evenodd" clip-rule="evenodd" d="M12.9361 5.31277C12.8298 4.2301 12.2462 3.29738 11.414 2.74619C11.436 1.22646 12.6075 0.000474545 14.0516 0C15.5097 0 16.6915 1.24829 16.6915 2.78843C16.6915 4.32833 15.5097 5.57662 14.0516 5.57662C13.6522 5.57662 13.2755 5.48028 12.9361 5.31277ZM11.7727 5.66702C11.7727 7.20692 10.5909 8.45544 9.13276 8.45544C7.67488 8.45544 6.4924 7.20715 6.4924 5.66725C6.4924 4.12736 7.67488 2.87883 9.13276 2.87883C10.5906 2.87883 11.7727 4.12712 11.7727 5.66702ZM10.2526 9.33691H8.0125C6.14871 9.33691 5 10.2473 5 12.216V15.1548C5 15.1548 6.93965 16 9.42389 16C11.9081 16 14 14.7837 14 14.7837V12.216C14.0007 10.2473 12.1164 9.33691 10.2526 9.33691ZM12.7768 6.5H14.9996C16.8631 6.5 18 7.3685 18 9.33691V12C18 12 17.1947 13.027 15 13.1119V12.2202C15 9.33691 11.5 8.5 11.5 8.5C11.5 8.5 12.7528 7.43936 12.7768 6.5ZM4.01724 5.57709C4.53368 5.57709 5.01417 5.41788 5.42121 5.14668C5.5506 4.25525 6.00302 3.47628 6.64929 2.94574C6.6501 2.93006 6.65109 2.91441 6.65209 2.89878L6.65209 2.89876C6.6544 2.86236 6.6567 2.82598 6.6567 2.78914C6.6567 1.249 5.47468 0.000711818 4.01724 0.000711818C2.55891 0.000711818 1.37733 1.249 1.37733 2.78914C1.37733 4.32856 2.55891 5.57709 4.01724 5.57709ZM5.48896 6.5C5.51559 7.40007 6.5 8.5 6.5 8.5C6.5 8.5 4 9.33691 4 12.2202V13.0941C1.61475 13.7778 0 12 0 12V9.33691C0 7.3685 1.13733 6.5 3.00112 6.5H5.48896Z" fill="white"/>
</svg>
