<svg width="132" height="36" viewBox="0 0 132 36" fill="none" xmlns="http://www.w3.org/2000/svg">
<g id="logo">
<path id="Symbol" fill-rule="evenodd" clip-rule="evenodd" d="M4 8H22C25 8 25 11 25 11V32C25 32 25 35 22 35H3.73244C3.38663 35.5978 2.74028 36 2 36C0.89543 36 0 35.1046 0 34C0 32.8954 0.89543 32 2 32C2.74028 32 3.38663 32.4022 3.73244 33H21C23 33.0288 23 31 23 31V12C23 12 23 10 21 10H5C3 10 3 12 3 12V24.2676C3.5978 24.6134 4 25.2597 4 26C4 27.1046 3.10457 28 2 28C0.89543 28 0 27.1046 0 26C0 25.2597 0.402199 24.6134 1 24.2676V11C1 11 1 8 4 8ZM26 5C26 6 25 6 25 6H1C1 6 0 6 0 5C0 4 1 4 1 4H8V2C8 2 8 0 10 0H16C18 0 18 2 18 2V4H25C25 4 26 4 26 5ZM16 4V2H10V4H16ZM9 14C9 14 9 13 10 13C11 13 11 14 11 14V29C11 29 11 30 10 30C9 30 9 29 9 29V14ZM15 14C15 14 15 13 16 13C17 13 17 14 17 14V29C17 29 17 30 16 30C15 30 15 29 15 29V14Z" fill="#00D4FF"/>
<path id="Binman" fill-rule="evenodd" clip-rule="evenodd" d="M43.6364 26.8027C45.1455 26.8027 46.4318 26.2672 47.4955 25.196C48.5591 24.1248 49.0909 22.8294 49.0909 21.3096C49.0909 19.7898 48.5591 18.4944 47.4955 17.4232C46.4318 16.3521 45.1455 15.8165 43.6364 15.8165C42.1273 15.8165 40.8409 16.3521 39.7773 17.4232C38.7136 18.4944 38.1818 19.7898 38.1818 21.3096C38.1818 22.8294 38.7136 24.1248 39.7773 25.196C40.8409 26.2672 42.1273 26.8027 43.6364 26.8027ZM38.1818 15.9263L38.2364 15.8714C39.7273 14.3699 41.5273 13.6192 43.6364 13.6192C45.7455 13.6192 47.5454 14.3699 49.0364 15.8714C50.5273 17.3729 51.2727 19.1856 51.2727 21.3096C51.2727 23.4336 50.5273 25.2464 49.0364 26.7478C47.5454 28.2493 45.7455 29 43.6364 29C41.5273 29 39.7273 28.2493 38.2364 26.7478C36.7454 25.2464 36 23.4336 36 21.3096V8.09863C36 7.7965 36.1068 7.53787 36.3205 7.32272C36.5341 7.10757 36.7909 7 37.0909 7C37.3909 7 37.6477 7.10757 37.8614 7.32272C38.075 7.53787 38.1818 7.7965 38.1818 8.09863V15.9263ZM57 10.3233C57 10.6987 56.8659 11.0214 56.5977 11.2915C56.3295 11.5616 56.0091 11.6966 55.6364 11.6966C55.2636 11.6966 54.9432 11.5616 54.675 11.2915C54.4068 11.0214 54.2727 10.6987 54.2727 10.3233C54.2727 9.94798 54.4068 9.62526 54.675 9.35518C54.9432 9.0851 55.2636 8.95006 55.6364 8.95006C56.0091 8.95006 56.3295 9.0851 56.5977 9.35518C56.8659 9.62526 57 9.94798 57 10.3233ZM54.5455 14.7179C54.5455 14.4157 54.6523 14.1571 54.8659 13.9419C55.0795 13.7268 55.3364 13.6192 55.6364 13.6192C55.9364 13.6192 56.1932 13.7268 56.4068 13.9419C56.6205 14.1571 56.7273 14.4157 56.7273 14.7179V27.9014C56.7273 28.2035 56.6205 28.4621 56.4068 28.6773C56.1932 28.8924 55.9364 29 55.6364 29C55.3364 29 55.0795 28.8924 54.8659 28.6773C54.6523 28.4621 54.5455 28.2035 54.5455 27.9014V14.7179ZM60 14.7179C60 14.4157 60.1068 14.1571 60.3205 13.9419C60.5341 13.7268 60.7909 13.6192 61.0909 13.6192C61.3909 13.6192 61.6477 13.7268 61.8614 13.9419C62.075 14.1571 62.1818 14.4157 62.1818 14.7179V15.6105C63.5455 14.283 65.1818 13.6192 67.0909 13.6192C69.0455 13.6192 70.7159 14.3173 72.1023 15.7135C73.4886 17.1097 74.1818 18.7919 74.1818 20.7603V27.9014C74.1818 28.2035 74.075 28.4621 73.8614 28.6773C73.6477 28.8924 73.3909 29 73.0909 29C72.7909 29 72.5341 28.8924 72.3205 28.6773C72.1068 28.4621 72 28.2035 72 27.9014V20.7603C72 19.3962 71.5205 18.2312 70.5614 17.2653C69.6023 16.2994 68.4455 15.8165 67.0909 15.8165C65.7364 15.8165 64.5796 16.2994 63.6205 17.2653C62.6614 18.2312 62.1818 19.3962 62.1818 20.7603V27.9014C62.1818 28.2035 62.075 28.4621 61.8614 28.6773C61.6477 28.8924 61.3909 29 61.0909 29C60.7909 29 60.5341 28.8924 60.3205 28.6773C60.1068 28.4621 60 28.2035 60 27.9014V14.7179ZM78.5455 27.9014C78.5455 28.2035 78.4386 28.4621 78.225 28.6773C78.0114 28.8924 77.7545 29 77.4545 29C77.1545 29 76.8977 28.8924 76.6841 28.6773C76.4705 28.4621 76.3636 28.2035 76.3636 27.9014V14.7179C76.3636 14.4157 76.4705 14.1571 76.6841 13.9419C76.8977 13.7268 77.1545 13.6192 77.4545 13.6192C77.7545 13.6192 78.0114 13.7268 78.225 13.9419C78.4386 14.1571 78.5455 14.4157 78.5455 14.7179V15.0062C79.6273 14.0816 80.9 13.6192 82.3636 13.6192C84.0182 13.6192 85.4318 14.2097 86.6045 15.3908C86.85 15.638 87.0727 15.8989 87.2727 16.1735C87.4727 15.8989 87.6955 15.638 87.9409 15.3908C89.1136 14.2097 90.5273 13.6192 92.1818 13.6192C93.8364 13.6192 95.25 14.2097 96.4227 15.3908C97.5955 16.5718 98.1818 17.9954 98.1818 19.6617V27.9014C98.1818 28.2035 98.075 28.4621 97.8614 28.6773C97.6477 28.8924 97.3909 29 97.0909 29C96.7909 29 96.5341 28.8924 96.3205 28.6773C96.1068 28.4621 96 28.2035 96 27.9014V19.6617C96 18.5997 95.6273 17.6933 94.8818 16.9426C94.1364 16.1918 93.2364 15.8165 92.1818 15.8165C91.1273 15.8165 90.2273 16.1918 89.4818 16.9426C88.7364 17.6933 88.3636 18.5997 88.3636 19.6617V27.9014C88.3636 28.2035 88.2568 28.4621 88.0432 28.6773C87.8295 28.8924 87.5727 29 87.2727 29C86.9727 29 86.7159 28.8924 86.5023 28.6773C86.2886 28.4621 86.1818 28.2035 86.1818 27.9014V19.6617C86.1818 18.5997 85.8091 17.6933 85.0636 16.9426C84.3182 16.1918 83.4182 15.8165 82.3636 15.8165C81.3091 15.8165 80.4091 16.1918 79.6636 16.9426C78.9182 17.6933 78.5455 18.5997 78.5455 19.6617V27.9014ZM108 15.8165C106.491 15.8165 105.205 16.3521 104.141 17.4232C103.077 18.4944 102.545 19.7898 102.545 21.3096C102.545 22.8294 103.077 24.1248 104.141 25.196C105.205 26.2672 106.491 26.8027 108 26.8027C109.509 26.8027 110.795 26.2672 111.859 25.196C112.923 24.1248 113.455 22.8294 113.455 21.3096C113.455 19.7898 112.923 18.4944 111.859 17.4232C110.795 16.3521 109.509 15.8165 108 15.8165ZM113.455 26.6929C111.927 28.231 110.109 29 108 29C105.891 29 104.091 28.2493 102.6 26.7478C101.109 25.2464 100.364 23.4336 100.364 21.3096C100.364 19.1856 101.109 17.3729 102.6 15.8714C104.091 14.3699 105.891 13.6192 108 13.6192C110.109 13.6192 111.909 14.3699 113.4 15.8714C114.891 17.3729 115.636 19.1856 115.636 21.3096V27.9014C115.636 28.2035 115.53 28.4621 115.316 28.6773C115.102 28.8924 114.845 29 114.545 29C114.245 29 113.989 28.8924 113.775 28.6773C113.561 28.4621 113.455 28.2035 113.455 27.9014V26.6929ZM117.818 14.7179C117.818 14.4157 117.925 14.1571 118.139 13.9419C118.352 13.7268 118.609 13.6192 118.909 13.6192C119.209 13.6192 119.466 13.7268 119.68 13.9419C119.893 14.1571 120 14.4157 120 14.7179V15.6105C121.364 14.283 123 13.6192 124.909 13.6192C126.864 13.6192 128.534 14.3173 129.92 15.7135C131.307 17.1097 132 18.7919 132 20.7603V27.9014C132 28.2035 131.893 28.4621 131.68 28.6773C131.466 28.8924 131.209 29 130.909 29C130.609 29 130.352 28.8924 130.139 28.6773C129.925 28.4621 129.818 28.2035 129.818 27.9014V20.7603C129.818 19.3962 129.339 18.2312 128.38 17.2653C127.42 16.2994 126.264 15.8165 124.909 15.8165C123.555 15.8165 122.398 16.2994 121.439 17.2653C120.48 18.2312 120 19.3962 120 20.7603V27.9014C120 28.2035 119.893 28.4621 119.68 28.6773C119.466 28.8924 119.209 29 118.909 29C118.609 29 118.352 28.8924 118.139 28.6773C117.925 28.4621 117.818 28.2035 117.818 27.9014V14.7179Z" fill="white"/>
</g>
</svg>
