<svg width="18" height="16" viewBox="0 0 18 16" fill="none" xmlns="http://www.w3.org/2000/svg">
<path fill-rule="evenodd" clip-rule="evenodd" d="M1 15.6423C1 15.8374 1.14885 16 1.33588 16H3.66412C3.84733 16 4 15.8415 4 15.6423V9.45068L2.30916 11.2515C1.95038 11.6295 1.63202 12.0193 1 12.0193L1 15.6423ZM5 15.6447C5 15.8385 5.14885 16 5.33588 16H7.66412C7.84733 16 8 15.8425 8 15.6447V11.5546L5 8.48596V15.6447ZM9 15.7012C9 15.8642 9.14885 16 9.33588 16H11.6641C11.8473 16 12 15.8676 12 15.7012V8.80981L9.33588 11.6112C9.23282 11.7029 9.11832 11.7515 9 11.8194V15.7012ZM13 7.78992V15.6856C13 15.8571 13.1489 16 13.3359 16H15.6641C15.8473 16 16 15.8607 16 15.6856V4.6543L13 7.78992ZM17.3348 0C17.3152 0 17.2918 0 17.2723 0C16.1637 0.0525784 15.059 0.109201 13.9504 0.16178C13.8021 0.169869 13.5991 0.177958 13.4391 0.343782C13.3883 0.39636 13.3493 0.457027 13.3181 0.529828C13.1541 0.897877 13.3844 1.1365 13.4937 1.24975L13.7709 1.54095C13.9621 1.74317 14.1573 1.9454 14.3525 2.14358L8.65407 8.08797L5.64447 4.96967C5.46491 4.78362 5.22289 4.67846 4.96526 4.67846C4.70763 4.67846 4.46951 4.78362 4.28995 4.96967L0.281052 9.11931C-0.0936841 9.50758 -0.0936841 10.1345 0.281052 10.5227L0.460614 10.7088C0.640175 10.8948 0.882192 11 1.13982 11C1.39745 11 1.63557 10.8948 1.81513 10.7088L4.96526 7.44489L7.97486 10.5632C8.15442 10.7492 8.39644 10.8544 8.65407 10.8544C8.9117 10.8544 9.14982 10.7492 9.33328 10.5632L15.8905 3.73306L16.7453 4.61476C16.8468 4.71992 16.9874 4.86552 17.202 4.86552C17.2918 4.86552 17.3816 4.84125 17.4753 4.78868C17.5377 4.75227 17.5924 4.71183 17.6392 4.6633C17.8071 4.48938 17.8383 4.26694 17.8461 4.09302C17.8774 3.34884 17.9125 2.60465 17.9476 1.85642L17.9984 0.736097C18.0101 0.501517 17.9593 0.319515 17.8383 0.190091C17.7251 0.0647118 17.5534 0 17.3348 0Z" fill="white"/>
</svg>
