<svg width="15" height="15" viewBox="0 0 15 15" fill="none" xmlns="http://www.w3.org/2000/svg">
<path d="M7.48862 2.35161L8.7929 5.1055L8.79374 5.10726C9.00715 5.55559 9.42242 5.87182 9.91225 5.95368L9.92067 5.95508L9.92912 5.95635L12.9239 6.40438L10.7326 8.65792C10.7317 8.65874 10.7309 8.65957 10.7301 8.6604C10.3763 9.02207 10.2379 9.52441 10.318 9.99515L10.8346 13.1064L8.23492 11.681C7.76733 11.4199 7.23322 11.4505 6.81499 11.6702L6.8043 11.6758L6.79375 11.6817L4.1993 13.1252L4.69828 10.0065L4.69832 10.0065L4.69956 9.99827C4.76983 9.53433 4.632 9.04121 4.27894 8.68174L4.27934 8.68215L3.56539 9.38235L4.27863 8.68143M7.48862 2.35161L4.27863 8.68143M7.48862 2.35161L6.20405 5.10783C5.9923 5.57023 5.56894 5.88439 5.08402 5.96543L5.07342 5.9672L5.07341 5.96714L2.07555 6.43507L4.27863 8.68143M7.48862 2.35161L4.27863 8.68143" fill="white" stroke="#ABD02D" stroke-width="2"/>
</svg>
